<svg width="28" height="28" viewBox="0 0 23 23" fill="none" xmlns="http://www.w3.org/2000/svg">
<path d="M2.50797 15.5864C2.50797 19.9393 6.67306 22.7661 6.85038 22.8843C7.37024 23.2308 8.04383 22.7404 7.8719 22.1386C6.81553 18.4414 6.93518 14.6004 9.78578 11.9954C9.43832 13.2758 9.53062 14.3185 10.0615 15.0982C11.0838 16.5997 13.3553 16.5632 15.1454 16.2944C16.5309 17.5166 15.5425 20.3501 14.7063 22.0224C14.3979 22.6393 15.1131 23.2639 15.6826 22.8843C18.7018 20.8715 20.3155 18.3449 20.4791 15.3745C20.7781 9.94157 15.794 3.59305 11.6995 0.158325C11.2622 -0.208499 10.5927 0.102855 10.5927 0.674493C10.5927 4.45951 8.62153 6.3085 6.53467 8.26609C4.55503 10.1231 2.50797 12.0433 2.50797 15.5864ZM11.8478 2.11435C15.2621 5.37237 19.3935 10.6043 19.1334 15.3027C19.0333 17.1119 18.2783 18.7417 16.8833 20.1695C17.9761 16.2275 15.7239 15.0407 15.6101 14.9838C15.4827 14.9201 15.3384 14.8984 15.198 14.9218C13.0684 15.2768 11.6776 15.0759 11.1761 14.341C10.4801 13.3214 11.4492 11.2051 11.8442 10.5432C12.1754 9.99116 11.6136 9.3322 11.0162 9.57097C8.96154 10.393 4.99453 13.7004 6.11409 20.4728C5.06904 19.3833 3.85543 17.6695 3.85543 15.5864C3.85543 12.6269 5.52426 11.0614 7.45656 9.24884C9.31381 7.50666 11.3901 5.55868 11.8478 2.11435Z" fill="#6551BC"/>
</svg>
