<svg width="15" height="16" viewBox="0 0 15 16" fill="none" xmlns="http://www.w3.org/2000/svg">
<path d="M9.94312 8.08134L15 11.4913V4.52734L9.94312 8.08134Z" fill="#2F2F2F"/>
<path d="M0 4.52734V11.4913L5.05687 8.08134L0 4.52734Z" fill="#2F2F2F"/>
<path d="M14.0625 2.5H0.937451C0.469639 2.5 0.0983887 2.872 0.0280762 3.351L7.49995 8.602L14.9718 3.351C14.9015 2.872 14.5303 2.5 14.0625 2.5Z" fill="#2F2F2F"/>
<path d="M9.0844 8.68557L7.75784 9.61757C7.67909 9.67257 7.59003 9.69957 7.50003 9.69957C7.41003 9.69957 7.32097 9.67257 7.24222 9.61757L5.91565 8.68457L0.0300293 12.6556C0.102217 13.1306 0.471592 13.4996 0.937529 13.4996H14.0625C14.5285 13.4996 14.8978 13.1306 14.97 12.6556L9.0844 8.68557Z" fill="#2F2F2F"/>
</svg>
