<svg width="14" height="14" viewBox="0 0 14 14" fill="none" xmlns="http://www.w3.org/2000/svg">
<g clip-path="url(#clip0)">
<path d="M5.79729 8.2031C4.46102 6.86683 4.15929 5.53055 4.09123 4.99517C4.0722 4.84714 4.12315 4.69868 4.22905 4.59352L5.31043 3.51262C5.4695 3.35365 5.49773 3.10589 5.3785 2.91521L3.65674 0.241689C3.52483 0.0305424 3.25399 -0.0456626 3.03133 0.0657237L0.267294 1.36748C0.0872392 1.45614 -0.0186665 1.64745 0.00177672 1.8471C0.146604 3.22297 0.746432 6.60517 4.07023 9.92921C7.39402 13.2532 10.7757 13.8528 12.1523 13.9977C12.352 14.0181 12.5433 13.9122 12.6319 13.7321L13.9337 10.9681C14.0447 10.7459 13.969 10.4758 13.7587 10.3437L11.0852 8.62238C10.8946 8.50302 10.6469 8.53105 10.4878 8.68997L9.40688 9.77135C9.30171 9.87725 9.15326 9.92819 9.00523 9.90917C8.46985 9.8411 7.13357 9.53938 5.79729 8.2031Z" fill="#2F2F2F"/>
<path d="M11.1035 7.48254C10.8369 7.48254 10.6208 7.2664 10.6208 6.99978C10.6185 5.00107 8.99881 3.38135 7.00009 3.37909C6.73347 3.37909 6.51733 3.16295 6.51733 2.89633C6.51733 2.62971 6.73347 2.41357 7.00009 2.41357C9.53183 2.41637 11.5835 4.46805 11.5863 6.99978C11.5863 7.2664 11.3702 7.48254 11.1035 7.48254Z" fill="#2F2F2F"/>
<path d="M13.5173 7.48276C13.2507 7.48276 13.0346 7.26662 13.0346 7C13.0309 3.66879 10.3313 0.969242 7.00009 0.965517C6.73347 0.965517 6.51733 0.749379 6.51733 0.482759C6.51733 0.216138 6.73347 0 7.00009 0C10.8643 0.00425693 13.9958 3.13577 14.0001 7C14.0001 7.12804 13.9492 7.25083 13.8587 7.34136C13.7682 7.4319 13.6454 7.48276 13.5173 7.48276Z" fill="#2F2F2F"/>
</g>
<defs>
<clipPath id="clip0">
<rect width="14" height="14" fill="white"/>
</clipPath>
</defs>
</svg>
