<svg width="16" height="16" viewBox="0 0 16 16" fill="none" xmlns="http://www.w3.org/2000/svg">
<g clip-path="url(#clip0)">
<path d="M9.6002 0H6.39979C3.31151 0 0.799072 2.51244 0.799072 5.60072V8.00103C0.799072 10.1692 2.04951 12.1368 3.99948 13.0623V15.7353C3.99948 15.9674 4.28982 16.0888 4.45476 15.9239L6.77692 13.6018H9.60017C12.6884 13.6018 15.2009 11.0893 15.2009 8.00103V5.60072C15.2009 2.51244 12.6884 0 9.6002 0Z" fill="#665CAC"/>
<path d="M4.79957 13.0623C2.8496 12.1367 1.59917 10.1692 1.59917 8.001V5.60069C1.59917 2.51244 4.11163 0 7.19988 0H6.39979C3.31151 0 0.799072 2.51244 0.799072 5.60072V8.00103C0.799072 10.1692 2.04951 12.1368 3.99948 13.0623V15.7353C3.99948 15.9674 4.28982 16.0888 4.45476 15.9239L4.79957 15.5791V13.0623Z" fill="#523494"/>
<path d="M12.0265 9.94095L11.7867 8.64202C11.7669 8.5347 11.6838 8.4503 11.5768 8.42889L9.69092 8.05173C9.60332 8.0343 9.51307 8.06164 9.44998 8.12467L8.68382 8.89086C7.39295 8.31245 6.67651 7.59445 6.04614 6.24817L6.80982 5.48452C6.87286 5.42145 6.90023 5.33102 6.88276 5.24358L6.50561 3.3577C6.4842 3.25073 6.39979 3.16755 6.29248 3.14774L4.99354 2.90798C4.95798 2.90145 4.92136 2.90214 4.88604 2.91017C4.54307 2.98808 4.23014 3.16089 3.98104 3.41005C3.54973 3.84136 3.38489 4.47073 3.50439 5.23014C3.70498 6.50533 4.32973 8.27995 5.48239 9.43723L5.49814 9.45286C6.65451 10.6047 8.42917 11.2295 9.70442 11.4301C9.86507 11.4555 10.0198 11.468 10.1682 11.468C10.7211 11.468 11.1844 11.2935 11.5246 10.9535C11.7737 10.7043 11.9465 10.3914 12.0244 10.0485C12.0323 10.0131 12.0331 9.97658 12.0265 9.94095Z" fill="white"/>
<path d="M6.54935 5.74446L6.8101 5.48368L6.81038 5.4834L6.54932 5.74443L6.54935 5.74446Z" fill="#E5E5E5"/>
<path d="M9.45008 8.12414L9.18677 8.38745L9.18681 8.3875L9.45012 8.12419L9.45008 8.12414Z" fill="#E5E5E5"/>
<path d="M10.6711 10.9644C10.5227 10.9644 10.368 10.9519 10.2074 10.9265C8.93214 10.7259 7.15748 10.1011 6.00107 8.94926L5.98532 8.93364C4.83267 7.77636 4.20792 6.00173 4.00732 4.72655C3.91079 4.11301 4.00004 3.58442 4.26532 3.17651C4.16373 3.24429 4.06839 3.32205 3.98104 3.40939C3.54973 3.8407 3.38489 4.47008 3.50439 5.22948C3.70498 6.50467 4.32973 8.2793 5.48239 9.43658L5.49814 9.4522C6.65451 10.604 8.42917 11.2289 9.70442 11.4295C9.86507 11.4548 10.0198 11.4673 10.1682 11.4673C10.7211 11.4673 11.1844 11.2929 11.5246 10.9528C11.6119 10.8655 11.6896 10.7701 11.7574 10.6685C11.4563 10.8644 11.0894 10.9644 10.6711 10.9644Z" fill="#E5E5E5"/>
<path d="M8.53353 4.53394C8.38625 4.53394 8.26685 4.65334 8.26685 4.80062C8.26685 4.9479 8.38625 5.06731 8.53353 5.06731C9.12178 5.06731 9.60035 5.54587 9.60035 6.13412C9.60035 6.27944 9.72172 6.40081 9.86703 6.40081C10.0123 6.40081 10.1337 6.27944 10.1337 6.13412C10.1338 5.25175 9.41591 4.53394 8.53353 4.53394Z" fill="white"/>
<path d="M8.53344 3.46802C8.43479 3.46802 8.33523 3.47349 8.23748 3.48427C8.09107 3.50042 7.98548 3.63221 8.00163 3.77864C8.01779 3.92508 8.14985 4.03039 8.29601 4.01449C8.37438 4.00583 8.45426 4.00142 8.53344 4.00142C9.70991 4.00142 10.667 4.95855 10.667 6.13502C10.667 6.21424 10.6626 6.29411 10.654 6.37249C10.638 6.51689 10.7453 6.65095 10.8898 6.66686C11.0342 6.68277 11.1682 6.57549 11.1842 6.43102C11.195 6.33327 11.2004 6.23371 11.2004 6.13502C11.2004 4.66446 10.004 3.46802 8.53344 3.46802Z" fill="white"/>
<path d="M8.53392 2.40088C8.43861 2.40088 8.34208 2.4045 8.24708 2.41172C8.1002 2.42285 7.99014 2.55097 8.00126 2.69782C8.01236 2.84469 8.14092 2.95475 8.28736 2.94363C8.36901 2.93741 8.45198 2.93429 8.53392 2.93429C10.2986 2.93429 11.7343 4.36997 11.7343 6.13469C11.7343 6.38438 11.7055 6.63294 11.6487 6.87344C11.6161 7.01125 11.701 7.1545 11.8376 7.19194C11.9814 7.23132 12.1335 7.14116 12.1678 6.99613C12.2341 6.71547 12.2677 6.42566 12.2677 6.13469C12.2677 4.07585 10.5928 2.40088 8.53392 2.40088Z" fill="white"/>
</g>
<defs>
<clipPath id="clip0">
<rect width="16" height="16" fill="white"/>
</clipPath>
</defs>
</svg>
