<svg width="43" height="43" viewBox="0 0 43 43" fill="none" xmlns="http://www.w3.org/2000/svg">
<g clip-path="url(#clip0)">
<path d="M26.989 5.35783C22.2592 2.9678 16.5616 3.88163 12.8116 7.63171C8.45318 11.99 8.01697 18.9394 11.7969 23.7965C11.9306 23.9682 12.1303 24.0581 12.3322 24.0581C12.4776 24.0581 12.6242 24.0115 12.7479 23.9151C13.0433 23.6853 13.0964 23.2596 12.8666 22.9642C9.5056 18.6455 9.89402 12.4659 13.77 8.58997C17.105 5.25478 22.1716 4.44198 26.3779 6.56737C26.7119 6.73635 27.1195 6.60214 27.2883 6.26814C27.457 5.93413 27.3232 5.52655 26.989 5.35783Z" fill="#6551BC"/>
<path d="M32.4 10.77C32.2312 10.436 31.8238 10.3019 31.4895 10.4706C31.1555 10.6393 31.0214 11.0468 31.1901 11.381C33.314 15.5866 32.5008 20.6525 29.1665 23.9867C25.2905 27.8626 19.111 28.2509 14.7923 24.8901C14.4969 24.6604 14.0712 24.7134 13.8414 25.0087C13.6115 25.3041 13.6647 25.7298 13.96 25.9597C16.1725 27.6815 18.819 28.5284 21.457 28.5284C24.6104 28.5284 27.7518 27.3181 30.125 24.945C33.8741 21.1959 34.7884 15.4994 32.4 10.77Z" fill="#6551BC"/>
<path d="M30.6494 8.18913C30.4815 7.99916 30.3051 7.81153 30.1251 7.63164C29.9451 7.45166 29.7576 7.27529 29.5676 7.10741C29.2872 6.85949 28.8589 6.88602 28.6112 7.16645C28.3632 7.44679 28.3896 7.87503 28.67 8.12287C28.8392 8.27236 29.0064 8.42958 29.1668 8.5899C29.327 8.75031 29.4842 8.91736 29.6338 9.08659C29.7677 9.2381 29.9543 9.31545 30.1418 9.31545C30.3013 9.31545 30.4614 9.25943 30.5903 9.14555C30.8708 8.89779 30.8972 8.46955 30.6494 8.18913Z" fill="#6551BC"/>
<path d="M37.4626 17.5032C37.9145 16.7619 37.9145 15.8411 37.4625 15.0999L36.571 13.638C36.4536 13.4453 36.4081 13.2166 36.4432 12.9938L36.709 11.3055C36.8444 10.4451 36.4909 9.59239 35.7867 9.08L34.405 8.07504C34.2224 7.94209 34.0925 7.74817 34.0394 7.52864L33.637 5.86583C33.4327 5.02119 32.7811 4.36964 31.9365 4.16522L30.2737 3.76277C30.0541 3.70961 29.86 3.57977 29.7273 3.3971L28.7221 2.01514C28.2098 1.31084 27.357 0.957182 26.4969 1.09273L24.8079 1.35846C24.5852 1.39348 24.3564 1.34813 24.1639 1.23072L22.7017 0.338972C21.9604 -0.113033 21.0396 -0.112949 20.2984 0.338972L18.8364 1.23047C18.6439 1.34796 18.4152 1.39315 18.1922 1.35821L16.5038 1.09248C15.6436 0.957098 14.7908 1.31059 14.2785 2.01488L13.2735 3.39651C13.1406 3.57918 12.9466 3.70902 12.7269 3.76218L11.0641 4.16455C10.2197 4.3688 9.56794 5.02044 9.36352 5.86499L8.96107 7.52788C8.9079 7.74742 8.77815 7.9415 8.5954 8.07428L7.21343 9.07941C6.50914 9.59163 6.15573 10.4442 6.29103 11.3047L6.55676 12.9937C6.59178 13.2165 6.54643 13.4453 6.42902 13.6378L5.53735 15.1C5.08552 15.8413 5.08552 16.7621 5.53744 17.5032L6.42893 18.9652C6.54634 19.1579 6.59178 19.3867 6.55667 19.6094L6.29095 21.2978C6.15548 22.1582 6.50897 23.0109 7.21327 23.5232L8.59489 24.5282C8.77756 24.661 8.9074 24.8551 8.96056 25.0746L9.36293 26.7374C9.56718 27.582 10.2188 28.2336 11.0634 28.438L11.7578 28.6061L7.05848 39.0885C6.95862 39.3113 6.98625 39.5705 7.13096 39.7672C7.27558 39.9639 7.51469 40.0676 7.75723 40.0385L11.5384 39.5865L13.7166 42.7099C13.8441 42.8926 14.0521 42.9999 14.2722 42.9999C14.2933 42.9999 14.3147 42.9989 14.3358 42.997C14.5789 42.9741 14.7909 42.8222 14.8908 42.5996L19.6901 31.8933L20.2982 32.2641C20.6688 32.4901 21.0843 32.6031 21.4999 32.6031C21.9154 32.6031 22.3309 32.49 22.7015 32.2641L23.3316 31.8799L28.1369 42.5996C28.2368 42.8224 28.4488 42.9741 28.6919 42.997C28.7131 42.999 28.7344 43 28.7555 43C28.9756 43 29.1837 42.8927 29.3111 42.71L31.4893 39.5865L35.2705 40.0386C35.5129 40.0674 35.7521 39.964 35.8968 39.7673C36.0414 39.5706 36.0692 39.3114 35.9692 39.0886L31.2675 28.6004L31.9358 28.4387C32.7803 28.2344 33.432 27.5828 33.6364 26.7382L34.0389 25.0754C34.092 24.8558 34.2219 24.6617 34.4045 24.529L35.7865 23.5238C36.4908 23.0116 36.8442 22.159 36.7089 21.2986L36.4432 19.6096C36.4081 19.3867 36.4535 19.158 36.5709 18.9655L37.4626 17.5032ZM14.1437 40.9531L12.4175 38.4778C12.2743 38.2725 12.0296 38.1627 11.7812 38.1926L8.7847 38.5508L13.0661 28.9999C13.1444 29.0574 13.2146 29.1264 13.2725 29.2061L14.2776 30.588C14.3731 30.7193 14.4804 30.8383 14.5974 30.9443L12.3439 35.9713C12.1909 36.3129 12.3435 36.7138 12.685 36.8669C12.7751 36.9073 12.8692 36.9263 12.9618 36.9263C13.2206 36.9263 13.4678 36.7772 13.5805 36.5257L15.826 31.5165C16.047 31.5469 16.2745 31.5464 16.5029 31.5104L18.1918 31.2447C18.2929 31.2288 18.3951 31.2302 18.4947 31.2467L14.1437 40.9531ZM34.2432 38.5507L31.2466 38.1926C30.9979 38.1628 30.7535 38.2725 30.6103 38.4778L28.8841 40.9531L24.5313 31.2429C24.6226 31.2305 24.7157 31.2305 24.8079 31.2449L26.4962 31.5107C26.7338 31.548 26.9705 31.5469 27.1999 31.5127L29.4472 36.5259C29.56 36.7774 29.807 36.9265 30.0659 36.9265C30.1585 36.9265 30.2527 36.9074 30.3426 36.867C30.6841 36.714 30.8369 36.313 30.6838 35.9715L28.4216 30.9253C28.5307 30.824 28.6316 30.7119 28.7215 30.5883L29.7265 29.2066C29.7898 29.1195 29.8674 29.0449 29.9546 28.9845L34.2432 38.5507ZM36.3054 16.7976L35.4138 18.2598C35.1295 18.7263 35.0195 19.2804 35.1044 19.8201L35.3701 21.509C35.4259 21.8642 35.28 22.2162 34.9893 22.4277L33.6073 23.4329C33.1649 23.7547 32.8503 24.2248 32.7216 24.7565L32.3192 26.4194C32.2348 26.768 31.9659 27.037 31.6172 27.1214L29.9543 27.5238C29.4225 27.6524 28.9523 27.967 28.6305 28.4095L27.6255 29.7911C27.4141 30.0819 27.0622 30.2277 26.7068 30.1718L25.0184 29.9061C24.4786 29.8212 23.9244 29.931 23.4579 30.2155L21.996 31.107C21.69 31.2934 21.3097 31.2934 21.0039 31.107L19.5417 30.2154C19.178 29.9936 18.7611 29.878 18.3393 29.878C18.22 29.878 18.1002 29.8872 17.9813 29.906L16.2923 30.1717C15.9371 30.2276 15.5852 30.0816 15.3737 29.7909L14.3685 28.409C14.0467 27.9666 13.5766 27.652 13.0449 27.5233L11.382 27.1209C11.0334 27.0365 10.7644 26.7676 10.68 26.4189L10.2776 24.756C10.1489 24.2243 9.83442 23.754 9.39191 23.4322L8.01036 22.4272C7.71961 22.2157 7.57373 21.8636 7.62966 21.5084L7.89539 19.82C7.9803 19.2803 7.87044 18.7261 7.58599 18.2596L6.69449 16.7975C6.50796 16.4915 6.50796 16.1114 6.69449 15.8055L7.58616 14.3432C7.87053 13.8768 7.98046 13.3226 7.89556 12.783L7.62983 11.094C7.57398 10.7389 7.71994 10.3869 8.01061 10.1754L9.39266 9.1702C9.83501 8.84837 10.1496 8.37831 10.2783 7.8466L10.6807 6.18371C10.7651 5.83509 11.0341 5.56608 11.3828 5.48168L13.0457 5.07931C13.5774 4.95065 14.0476 4.63604 14.3693 4.19361L15.3743 2.81198C15.5858 2.52123 15.9377 2.37518 16.293 2.43119L17.9814 2.69692C18.5213 2.782 19.0755 2.67198 19.5419 2.38752L21.0039 1.49603C21.3098 1.30958 21.6901 1.30958 21.9959 1.49603L23.4581 2.38761C23.9246 2.67215 24.4789 2.78208 25.0185 2.69709L26.7075 2.43136C27.0626 2.37568 27.4147 2.52148 27.6261 2.81215L28.6313 4.19411C28.9532 4.63646 29.4232 4.95107 29.9549 5.07973L31.6178 5.48218C31.9664 5.56659 32.2354 5.83551 32.3199 6.18421L32.7222 7.84702C32.8509 8.37881 33.1654 8.84904 33.6079 9.17087L34.9896 10.1758C35.2803 10.3873 35.4262 10.7394 35.3703 11.0945L35.1045 12.783C35.0196 13.3227 35.1295 13.8769 35.4139 14.3434L36.3054 15.8055C36.492 16.1114 36.492 16.4916 36.3054 16.7976Z" fill="#6551BC"/>
<path d="M29.4295 14.1931C29.2802 13.7334 28.8892 13.4124 28.4092 13.3555L24.3316 12.872L22.6118 9.14349C22.4093 8.70458 21.9833 8.43188 21.4998 8.43188C21.0165 8.43188 20.5904 8.70458 20.3879 9.14349L18.668 12.8721L14.5905 13.3556C14.1105 13.4125 13.7194 13.7335 13.5702 14.1932C13.4209 14.6527 13.5485 15.1422 13.9033 15.4704L16.9179 18.2582L16.1177 22.2856C16.0235 22.7598 16.208 23.2308 16.5991 23.5148C16.8148 23.6715 17.0652 23.7509 17.3172 23.7509C17.522 23.7509 17.7278 23.6985 17.9168 23.5927L21.4998 21.5872L25.0827 23.5927C25.5046 23.8289 26.0094 23.799 26.4005 23.5149C26.7916 23.2308 26.976 22.7597 26.8818 22.2856L26.0816 18.2583L29.0962 15.4705C29.4512 15.1423 29.5788 14.6529 29.4295 14.1931ZM24.8831 17.5209C24.7101 17.6808 24.6326 17.9193 24.6785 18.1504L25.4973 22.2716L21.8307 20.2193C21.7279 20.1618 21.6139 20.1329 21.4998 20.1329C21.3856 20.1329 21.2716 20.1617 21.1688 20.2193L17.5022 22.2716L18.321 18.1504C18.367 17.9192 18.2895 17.6808 18.1164 17.5209L15.0315 14.6679L19.2044 14.1732C19.4384 14.1454 19.6412 13.998 19.7399 13.7841L21.4998 9.96863L23.2597 13.7841C23.3585 13.998 23.5612 14.1454 23.7953 14.1732L27.968 14.6679L24.8831 17.5209Z" fill="#6551BC"/>
</g>
<defs>
<clipPath id="clip0">
<rect width="43" height="43" fill="white"/>
</clipPath>
</defs>
</svg>
