<svg width="55" height="51" viewBox="0 0 55 51" fill="none" xmlns="http://www.w3.org/2000/svg">
<g clip-path="url(#clip0)">
<path d="M31.658 18.3428C31.1997 18.3428 30.8284 18.6717 30.8284 19.0776V19.9661C30.8284 20.372 31.1997 20.7009 31.658 20.7009C32.1162 20.7009 32.4875 20.372 32.4875 19.9661V19.0776C32.4875 18.6717 32.1161 18.3428 31.658 18.3428Z" fill="#6551BC"/>
<path d="M21.8366 19.0776V19.9661C21.8366 20.372 22.208 20.7009 22.6662 20.7009C23.1243 20.7009 23.4957 20.372 23.4957 19.9661V19.0776C23.4957 18.6717 23.1243 18.3428 22.6662 18.3428C22.208 18.3428 21.8366 18.6717 21.8366 19.0776Z" fill="#6551BC"/>
<path d="M27.1619 40.7832C26.7038 40.7832 26.3324 41.1121 26.3324 41.518V42.7687H24.9204C24.4622 42.7687 24.0908 43.0976 24.0908 43.5035C24.0908 43.9094 24.4622 44.2383 24.9204 44.2383H26.3324V45.489C26.3324 45.8949 26.7038 46.2238 27.1619 46.2238C27.6201 46.2238 27.9915 45.8949 27.9915 45.489V44.2383H29.4034C29.8616 44.2383 30.2329 43.9094 30.2329 43.5035C30.2329 43.0976 29.8616 42.7687 29.4034 42.7687H27.9915V41.518C27.9915 41.1121 27.6201 40.7832 27.1619 40.7832Z" fill="#6551BC"/>
<path d="M28.5278 22.9093C27.5834 23.5442 26.741 23.5442 25.7966 22.9093C25.4316 22.664 24.9113 22.7273 24.6343 23.0504C24.3573 23.3737 24.4287 23.8346 24.7936 24.08C25.5684 24.6007 26.3653 24.8612 27.1622 24.8612C27.9591 24.8612 28.7561 24.6008 29.5309 24.08C29.8959 23.8346 29.9671 23.3737 29.6901 23.0504C29.4132 22.7271 28.8928 22.6639 28.5278 22.9093Z" fill="#6551BC"/>
<path d="M40.3012 30.0825C38.7449 28.5765 36.7501 27.5182 34.5559 27.0131C36.3083 25.5295 37.4941 23.5255 37.7949 21.2844H37.8603C39.5563 21.2844 40.9362 20.0621 40.9362 18.5598V18.1471C40.9362 17.4592 40.6463 16.8305 40.1698 16.3506V8.63526C40.1698 5.46106 37.581 2.78574 34.1753 2.19732L34.3688 1.88812C34.7866 1.22083 34.6807 0.426082 34.0992 -0.136669C33.5177 -0.699421 32.6331 -0.862936 31.846 -0.553442L26.5313 1.53748C25.6235 1.89468 24.6595 2.07574 23.6663 2.07574H21.5598C20.3721 2.07574 19.189 2.33242 18.1386 2.81807C17.7325 3.00578 17.5751 3.4496 17.787 3.80945C17.9989 4.1692 18.5002 4.30881 18.9062 4.1208C19.7322 3.73901 20.625 3.54532 21.5597 3.54532H23.6662C24.8929 3.54532 26.0835 3.32165 27.2047 2.88058L32.5193 0.789657C32.6979 0.719215 32.8189 0.800923 32.8752 0.855494C32.9317 0.91026 33.0124 1.0244 32.9179 1.17537L32.1161 2.45587C31.9744 2.68218 31.9775 2.95778 32.1243 3.18145C32.2711 3.40512 32.5398 3.54394 32.8318 3.54688C35.9631 3.57902 38.5106 5.86157 38.5106 8.63526V15.4845C38.3041 15.4449 38.0901 15.4235 37.8707 15.4229V12.191C37.8707 11.9198 37.7021 11.6707 37.4321 11.543C37.1624 11.4151 36.8349 11.4294 36.5802 11.5801C35.8626 12.0049 35.1325 12.3877 34.4103 12.7178C34.0031 12.9039 33.8435 13.3471 34.0535 13.7077C34.2636 14.0684 34.7643 14.2096 35.1711 14.0237C35.5172 13.8655 35.8647 13.6962 36.2114 13.5169V20.1577C36.2114 24.5777 32.1518 28.1735 27.1618 28.1735C22.1719 28.1735 18.1123 24.5777 18.1123 20.1577C18.1123 17.9393 18.1123 15.7323 18.1123 13.517C22.6904 15.8816 27.3313 16.4496 31.927 15.2041C32.3651 15.0853 32.6115 14.6745 32.4776 14.2865C32.3436 13.8984 31.8801 13.6801 31.4416 13.7988C29.1803 14.4116 26.8889 14.5387 24.6314 14.1766C22.3548 13.8113 20.0375 12.9377 17.7437 11.58C17.4892 11.4293 17.1617 11.4149 16.8918 11.5429C16.6218 11.6707 16.4533 11.9198 16.4533 12.1909V15.4228C16.2338 15.4234 16.0198 15.4449 15.8133 15.4844V8.63516C15.8133 7.64045 16.1384 6.67611 16.7535 5.84629C17.0049 5.50711 16.8984 5.05154 16.5153 4.82875C16.1325 4.60616 15.6182 4.7005 15.3666 5.03968C14.5734 6.10964 14.1542 7.3529 14.1542 8.63506V16.3504C13.6777 16.8303 13.3878 17.459 13.3878 18.147V18.5597C13.3878 20.062 14.7676 21.2843 16.4638 21.2843H16.5292C16.83 23.5254 18.0157 25.5294 19.7682 27.013C17.574 27.5181 15.5792 28.5763 14.0228 30.0824C12.0228 32.018 10.9214 34.5299 10.9214 37.1554V46.7879C10.9214 48.2628 12.276 49.4627 13.9411 49.4627H16.5368C16.9949 49.4627 17.3663 49.1338 17.3663 48.7279C17.3663 48.322 16.9949 47.9931 16.5368 47.9931H13.9411C13.1908 47.9931 12.5805 47.4524 12.5805 46.7879V37.1554C12.5805 34.898 13.5274 32.7384 15.2466 31.0747C16.5028 29.8588 18.0917 28.984 19.8416 28.5219C19.139 29.586 18.744 30.8965 18.744 32.28V37.6936C16.9874 38.0315 15.6674 39.4185 15.6674 41.0741V45.0759C15.6674 45.758 16.2939 46.313 17.0639 46.313H18.1647C18.6228 46.313 18.9943 45.9841 18.9943 45.5782C18.9943 45.1723 18.6228 44.8434 18.1647 44.8434H17.3265V41.0741C17.3265 39.9767 18.3345 39.0839 19.5735 39.0839C20.8125 39.0839 21.8205 39.9767 21.8205 41.0741V44.8434H20.9822C20.5241 44.8434 20.1526 45.1723 20.1526 45.5782C20.1526 45.9841 20.5241 46.313 20.9822 46.313H22.083C22.853 46.313 23.4795 45.758 23.4795 45.0759V41.0741C23.4795 39.4185 22.1595 38.0315 20.4029 37.6936V32.2801C20.4029 30.2167 21.376 28.9971 21.9642 28.4484C22.1014 28.5162 22.2406 28.5815 22.3815 28.644L26.3925 37.4447C26.5192 37.7226 26.8235 37.9044 27.1618 37.9044C27.5 37.9044 27.8044 37.7226 27.9311 37.4447L31.9421 28.6439C32.1311 28.56 32.3173 28.4718 32.4997 28.3785C33.5819 29.2264 34.0779 30.9525 34.0779 32.2801V37.5899C32.6551 37.9168 31.6012 39.064 31.6012 40.4251C31.6012 42.0399 33.0844 43.3537 34.9075 43.3537C36.7306 43.3537 38.2139 42.04 38.2139 40.4251C38.2139 39.064 37.16 37.9168 35.737 37.5899V32.2801C35.737 31.1662 35.4574 29.7602 34.7512 28.5963C36.3948 29.0749 37.8855 29.9216 39.0772 31.0749C40.7964 32.7386 41.7432 34.8982 41.7432 37.1556V46.7881C41.7432 47.4526 41.1328 47.9933 40.3825 47.9933H19.8537C19.3955 47.9933 19.0241 48.3222 19.0241 48.7281C19.0241 49.134 19.3955 49.4629 19.8537 49.4629H40.3829C42.0481 49.4629 43.4027 48.263 43.4027 46.7881V37.1556C43.4027 34.5299 42.3012 32.0181 40.3012 30.0825ZM39.2771 18.1472V18.5599C39.2771 19.2489 38.6472 19.8099 37.8708 19.8149V16.8922C38.6472 16.8971 39.2771 17.4582 39.2771 18.1472ZM15.047 18.5599V18.1472C15.047 17.4582 15.6769 16.8971 16.4534 16.8921V19.8148C15.6769 19.8099 15.047 19.2489 15.047 18.5599ZM27.1621 35.2067L24.4903 29.3443C25.3446 29.5394 26.24 29.6432 27.1621 29.6432C28.0843 29.6432 28.9796 29.5395 29.834 29.3444L27.1621 35.2067ZM36.555 40.425C36.555 41.2295 35.816 41.884 34.9077 41.884C33.9995 41.884 33.2606 41.2295 33.2606 40.425C33.2606 39.6205 33.9995 38.9659 34.9077 38.9659C35.816 38.966 36.555 39.6205 36.555 40.425Z" fill="#6551BC"/>
</g>
<defs>
<clipPath id="clip0">
<rect width="53.6309" height="50.1708" fill="white" transform="translate(0.541199 0.157227)"/>
</clipPath>
</defs>
</svg>
