<svg width="48" height="51" viewBox="0 0 48 51" fill="none" xmlns="http://www.w3.org/2000/svg">
<g clip-path="url(#clip0)">
<path d="M41.3489 23.72C42.7421 22.6876 43.6646 20.9702 43.6646 19.0345C43.6646 15.8678 41.2359 13.3066 38.233 13.3066C35.2301 13.3066 32.8014 15.8678 32.8014 19.0345C32.8014 20.9702 33.7145 22.6876 35.1171 23.72C33.9216 24.1568 32.8297 24.8318 31.9071 25.7054C30.6363 24.5638 29.1396 23.6902 27.5016 23.174C29.4879 21.9033 30.8246 19.5904 30.8246 16.9597C30.8246 12.9492 27.7464 9.70312 23.9433 9.70312C20.1403 9.70312 17.0621 12.9592 17.0621 16.9597C17.0621 19.5904 18.3894 21.9033 20.385 23.174C18.7659 23.6902 17.288 24.5538 16.0266 25.6756C15.1041 24.8219 14.0309 24.1568 12.8542 23.7299C14.2474 22.6975 15.17 20.9801 15.17 19.0444C15.17 15.8777 12.7413 13.3165 9.73838 13.3165C6.73547 13.3165 4.30679 15.8777 4.30679 19.0444C4.30679 20.9801 5.2199 22.6975 6.62251 23.7299C2.88536 25.0899 0.202515 28.8324 0.202515 33.23V33.8852C0.202515 33.905 0.221342 33.9249 0.240169 33.9249H11.7529C11.687 34.4709 11.6493 35.0367 11.6493 35.6025V36.2776C11.6493 39.1961 13.8897 41.5587 16.6573 41.5587H31.2482C34.0158 41.5587 36.2562 39.1961 36.2562 36.2776V35.6025C36.2562 35.0367 36.2185 34.4709 36.1526 33.9249H47.7406C47.7594 33.9249 47.7783 33.905 47.7783 33.8852V33.23C47.7594 28.8224 45.086 25.08 41.3489 23.72ZM34.3076 19.0245C34.3076 16.7413 36.0679 14.885 38.233 14.885C40.3981 14.885 42.1584 16.7413 42.1584 19.0245C42.1584 21.2779 40.4358 23.1144 38.3083 23.1641C38.2801 23.1641 38.2612 23.1641 38.233 23.1641C38.2048 23.1641 38.1859 23.1641 38.1577 23.1641C36.0208 23.1244 34.3076 21.2879 34.3076 19.0245ZM18.5494 16.9597C18.5494 13.8327 20.9593 11.2914 23.9245 11.2914C26.8897 11.2914 29.2996 13.8327 29.2996 16.9597C29.2996 19.9775 27.0498 22.4493 24.2351 22.6181C24.1316 22.6181 24.028 22.6181 23.9245 22.6181C23.821 22.6181 23.7174 22.6181 23.6139 22.6181C20.7992 22.4493 18.5494 19.9775 18.5494 16.9597ZM5.78471 19.0245C5.78471 16.7413 7.54503 14.885 9.71014 14.885C11.8752 14.885 13.6356 16.7413 13.6356 19.0245C13.6356 21.2779 11.9129 23.1144 9.78544 23.1641C9.7572 23.1641 9.73838 23.1641 9.71014 23.1641C9.6819 23.1641 9.66307 23.1641 9.63483 23.1641C7.50738 23.1244 5.78471 21.2879 5.78471 19.0245ZM12.0164 32.3266H1.7275C2.15111 28.0978 5.53996 24.7822 9.65366 24.7524C9.67248 24.7524 9.69131 24.7524 9.71014 24.7524C9.72896 24.7524 9.74779 24.7524 9.76662 24.7524C11.7246 24.7623 13.5132 25.5267 14.897 26.7675C13.5414 28.3162 12.5342 30.2221 12.0164 32.3266ZM34.7312 36.2776C34.7312 38.3126 33.1591 39.9704 31.2294 39.9704H16.6385C14.7087 39.9704 13.1366 38.3126 13.1366 36.2776V35.6025C13.1366 29.4379 17.8057 24.395 23.6139 24.2163C23.7174 24.2262 23.8304 24.2262 23.9339 24.2262C24.0375 24.2262 24.1504 24.2262 24.254 24.2163C30.0621 24.395 34.7312 29.4379 34.7312 35.6025V36.2776ZM35.8514 32.3266C35.3336 30.2321 34.3452 28.3559 32.9991 26.8073C34.3923 25.5366 36.1997 24.7722 38.1765 24.7524C38.1953 24.7524 38.2142 24.7524 38.233 24.7524C38.2518 24.7524 38.2707 24.7524 38.2895 24.7524C42.4032 24.7822 45.792 28.0978 46.2156 32.3266H35.8514Z" fill="#6551BC"/>
</g>
<defs>
<clipPath id="clip0">
<rect width="47.5758" height="50.1708" fill="white" transform="translate(0.202515 0.545898)"/>
</clipPath>
</defs>
</svg>
