<svg width="44" height="45" viewBox="0 0 44 45" fill="none" xmlns="http://www.w3.org/2000/svg">
<path d="M17.3107 23.9806C17.6442 23.9806 17.9149 23.7038 17.9149 23.3626V16.7156C17.9149 16.3745 17.6442 16.0977 17.3107 16.0977H14.0342C13.7005 16.0977 13.4299 16.3745 13.4299 16.7156V23.3626C13.4299 23.7038 13.7005 23.9806 14.0342 23.9806H17.3107ZM14.6384 17.3336H16.7064V22.7447H14.6384V17.3336Z" fill="#6551BC"/>
<path d="M20.265 23.9806H23.5413C23.8747 23.9806 24.1456 23.7038 24.1456 23.3626V16.7156C24.1456 16.3745 23.8747 16.0977 23.5413 16.0977H20.265C19.931 16.0977 19.6608 16.3745 19.6608 16.7156V23.3626C19.6608 23.7038 19.931 23.9806 20.265 23.9806ZM20.8693 17.3336H22.9371V22.7447H20.8693V17.3336Z" fill="#6551BC"/>
<path d="M8.9241 33.5503C9.25764 33.5503 9.52834 33.2741 9.52834 32.9323V26.2859C9.52834 25.9443 9.25764 25.668 8.9241 25.668H5.64746C5.31392 25.668 5.04321 25.9443 5.04321 26.2859V32.9323C5.04321 33.2741 5.31392 33.5503 5.64746 33.5503H8.9241ZM6.25171 26.9039H8.31985V32.3143H6.25171V26.9039Z" fill="#6551BC"/>
<path d="M34.8817 33.5503H38.1582C38.4917 33.5503 38.7624 33.2741 38.7624 32.9323V26.2859C38.7624 25.9443 38.4917 25.668 38.1582 25.668H34.8817C34.548 25.668 34.2775 25.9443 34.2775 26.2859V32.9323C34.2775 33.2741 34.548 33.5503 34.8817 33.5503ZM35.486 26.9039H37.5539V32.3143H35.486V26.9039Z" fill="#6551BC"/>
<path d="M26.4952 23.9806H29.7719C30.1055 23.9806 30.3762 23.7038 30.3762 23.3626V16.7156C30.3762 16.3745 30.1055 16.0977 29.7719 16.0977H26.4952C26.1617 16.0977 25.891 16.3745 25.891 16.7156V23.3626C25.891 23.7038 26.1617 23.9806 26.4952 23.9806ZM27.0995 17.3336H29.1677V22.7447H27.0995V17.3336Z" fill="#6551BC"/>
<path d="M21.2987 7.90534C21.2987 8.24663 21.5694 8.52332 21.903 8.52332C22.2365 8.52332 22.5072 8.24663 22.5072 7.90534V6.62817H23.756C24.0895 6.62817 24.3602 6.35148 24.3602 6.01019C24.3602 5.6689 24.0895 5.39221 23.756 5.39221H22.5072V4.11505C22.5072 3.77376 22.2365 3.49707 21.903 3.49707C21.5694 3.49707 21.2987 3.77376 21.2987 4.11505V5.39221H20.0499C19.7164 5.39221 19.4457 5.6689 19.4457 6.01019C19.4457 6.35148 19.7164 6.62817 20.0499 6.62817H21.2987V7.90534Z" fill="#6551BC"/>
<path d="M41.9237 19.296C42.2573 19.296 42.528 19.0191 42.528 18.678V16.4533C42.528 16.1121 42.2573 15.8353 41.9237 15.8353H38.2579C37.9244 15.8353 37.6537 16.1121 37.6537 16.4533C37.6537 16.7944 37.9244 17.0713 38.2579 17.0713H41.3195V18.06C40.2972 18.06 33.0284 18.06 32.5933 18.06V17.0713H35.2498C35.5839 17.0713 35.854 16.7944 35.854 16.4533C35.854 16.1121 35.5839 15.8353 35.2498 15.8353H32.5933V12.938H33.5208C33.8547 12.938 34.125 12.6618 34.125 12.3201V10.0953C34.125 9.75436 33.8547 9.47734 33.5208 9.47734H28.1307V1.92462C28.1307 1.5835 27.8604 1.30664 27.5265 1.30664H16.2794C15.9456 1.30664 15.6752 1.5835 15.6752 1.92462V9.478H10.285C9.95109 9.478 9.68071 9.75436 9.68071 10.096V12.3201C9.68071 12.6618 9.95109 12.938 10.285 12.938H11.2126V15.8353H1.8822C1.54866 15.8353 1.27795 16.1121 1.27795 16.4533V18.678C1.27795 19.0191 1.54866 19.296 1.8822 19.296H2.15065V23.362C2.15065 23.7031 2.42119 23.9799 2.7549 23.9799C3.0886 23.9799 3.35915 23.7031 3.35915 23.362V19.296H11.2126V39.9222H3.35915V26.4301C3.35915 26.0887 3.0886 25.8121 2.7549 25.8121C2.42119 25.8121 2.15065 26.0887 2.15065 26.4301V39.9217H1.8822C1.54866 39.9217 1.27795 40.1984 1.27795 40.5397V42.8762C1.27795 43.2173 1.54866 43.4941 1.8822 43.4941H41.9237C42.2573 43.4941 42.528 43.2173 42.528 42.8762V40.5397C42.528 40.1984 42.2573 39.9217 41.9237 39.9217H41.6554V19.296H41.9237ZM10.8892 10.714H20.28C20.6136 10.714 20.8843 10.4371 20.8843 10.096C20.8843 9.75436 20.6136 9.478 20.28 9.478H16.8837V2.5426H26.9222V9.478H23.7022C23.3685 9.478 23.0979 9.75436 23.0979 10.096C23.0979 10.4371 23.3685 10.714 23.7022 10.714H32.9165V11.7021H10.8892V10.714ZM2.48645 17.0713H11.2126V18.06H2.48645V17.0713ZM12.4211 12.938H31.3848V39.9217H27.9052V30.1458C27.9052 29.8046 27.6345 29.5278 27.3009 29.5278H16.505C16.1715 29.5278 15.9008 29.8046 15.9008 30.1458V39.9217H12.4211V12.938ZM17.1093 39.9217V30.7637H21.2987V39.9217H17.1093ZM22.5072 30.7637H26.6967V39.9217H22.5072V30.7637ZM41.3195 42.2582H2.48645V41.1577H41.3195V42.2582ZM40.4469 39.9217H32.5933V19.296H40.4463V39.9217H40.4469Z" fill="#6551BC"/>
</svg>
