<svg width="46" height="46" viewBox="0 0 46 46" fill="none" xmlns="http://www.w3.org/2000/svg">
<g clip-path="url(#clip0)">
<path d="M37.9425 13.6218V12.1142C38.7543 11.857 39.3481 11.1056 39.3481 10.2103C39.3481 9.44558 38.9236 8.75822 38.2391 8.41594L36.8693 7.73069C36.6641 7.62878 36.5368 7.42285 36.5368 7.19373C36.5368 6.8627 36.8067 6.59352 37.1371 6.59352H37.3416C37.6726 6.59352 37.9425 6.8627 37.9425 7.19373V7.99917H39.3481V7.19373C39.3481 6.29834 38.7543 5.54702 37.9425 5.28978V3.78223H36.5368V5.28978C35.7251 5.54702 35.1312 6.29834 35.1312 7.19373C35.1312 7.95841 35.5557 8.64577 36.2403 8.98804L37.6101 9.67329C37.8153 9.7752 37.9425 9.98113 37.9425 10.2103C37.9425 10.5413 37.6726 10.8105 37.3423 10.8105H37.1378C36.8067 10.8105 36.5368 10.5413 36.5368 10.2103V9.40482H35.1312V10.2103C35.1312 11.1056 35.7251 11.857 36.5368 12.1142V13.6218H37.9425Z" fill="#6551BC"/>
<path d="M14.7493 8.10131V6.59375H13.3437V8.10131C12.5319 8.35854 11.938 9.10986 11.938 10.0053C11.938 10.7699 12.3625 11.4573 13.0471 11.7996L14.4169 12.4848C14.6221 12.5867 14.7493 12.7927 14.7493 13.0218C14.7493 13.3528 14.4794 13.622 14.1491 13.622H13.9446C13.6136 13.622 13.3437 13.3528 13.3437 13.0218V12.2163H11.938V13.0218C11.938 13.9172 12.5319 14.6685 13.3437 14.9257V16.4333H14.7493V14.9257C15.5611 14.6685 16.155 13.9172 16.155 13.0218C16.155 12.2571 15.7305 11.5697 15.0459 11.2275L13.6761 10.5422C13.4709 10.4403 13.3437 10.2344 13.3437 10.0053C13.3437 9.67423 13.6136 9.40505 13.9439 9.40505H14.1484C14.4794 9.40505 14.7493 9.67423 14.7493 10.0053V10.8107H16.155V10.0053C16.155 9.10986 15.5611 8.35854 14.7493 8.10131Z" fill="#6551BC"/>
<path d="M41.645 15.0462C43.6522 13.6482 44.9707 11.3275 44.9707 8.70176C44.9707 4.43914 41.5023 0.970703 37.2397 0.970703C32.977 0.970703 29.5086 4.43914 29.5086 8.70176C29.5086 10.4848 30.1215 12.1245 31.1392 13.4339L28.2021 16.1749C27.7663 15.8966 27.2518 15.73 26.6973 15.73C25.8968 15.73 25.1778 16.0702 24.6655 16.6085L21.1134 14.635C21.5372 13.6792 21.7775 12.6242 21.7775 11.5131C21.7775 7.25043 18.3091 3.782 14.0465 3.782C9.78386 3.782 6.31543 7.25043 6.31543 11.5131C6.31543 13.6778 7.21223 15.6344 8.65021 17.0394L6.52416 19.656C6.03851 19.4016 5.49523 19.2441 4.90978 19.2441C2.97209 19.2441 1.39566 20.8206 1.39566 22.7582C1.39566 24.6959 2.97209 26.2724 4.90978 26.2724C6.84746 26.2724 8.4239 24.6959 8.4239 22.7582C8.4239 21.9141 8.11255 21.1495 7.61495 20.5429L9.73888 17.9291C10.9709 18.7592 12.4532 19.2441 14.0465 19.2441C16.6968 19.2441 19.0386 17.9024 20.4316 15.8642L23.9858 17.8392C23.9268 18.0648 23.886 18.2974 23.886 18.5413C23.886 20.0917 25.1469 21.3526 26.6973 21.3526C28.2477 21.3526 29.5086 20.0917 29.5086 18.5413C29.5086 18.0563 29.3737 17.6058 29.1565 17.2073L32.0999 14.4607C32.3333 14.6694 32.5764 14.8669 32.8344 15.0462C31.7612 15.1431 30.9143 16.0378 30.9143 17.1356V18.5413C30.9143 19.0832 31.1258 19.573 31.4625 19.9469C31.1251 20.3208 30.9143 20.8107 30.9143 21.3526V22.7582C30.9143 23.3001 31.1258 23.79 31.4625 24.1639C31.1251 24.5378 30.9143 25.0277 30.9143 25.5695V26.9752C30.9143 27.5171 31.1258 28.0069 31.4625 28.3808C31.1251 28.7547 30.9143 29.2446 30.9143 29.7865V31.1921C30.9143 31.734 31.1258 32.2239 31.4625 32.5978C31.1251 32.9717 30.9143 33.4615 30.9143 34.0034V34.7062H27.4001C27.0663 34.7062 26.7542 34.7913 26.4731 34.9304C26.6123 34.6493 26.6973 34.3373 26.6973 34.0034V32.5978C26.6973 32.0559 26.4858 31.566 26.1491 31.1921C26.4865 30.8182 26.6973 30.3284 26.6973 29.7865V28.3808C26.6973 27.2184 25.7513 26.2724 24.5888 26.2724H16.155C14.9925 26.2724 14.0465 27.2184 14.0465 28.3808V29.7865C14.0465 30.1203 14.1315 30.4324 14.2707 30.7135C13.9896 30.5743 13.6775 30.4893 13.3437 30.4893H4.90978C3.74731 30.4893 2.80131 31.4353 2.80131 32.5978V34.0034C2.80131 34.5453 3.01286 35.0352 3.34951 35.4091C3.01286 35.783 2.80131 36.2728 2.80131 36.8147V38.2204C2.80131 38.7622 3.01286 39.2521 3.34951 39.626C3.01286 39.9999 2.80131 40.4898 2.80131 41.0317V42.4373C2.80131 43.5998 3.74731 44.5458 4.90978 44.5458H13.3437C13.8855 44.5458 14.3754 44.3342 14.7493 43.9976C15.1232 44.3349 15.6131 44.5458 16.155 44.5458H24.5888C25.1307 44.5458 25.6206 44.3342 25.9945 43.9976C26.3684 44.3349 26.8583 44.5458 27.4001 44.5458H35.834C36.9965 44.5458 37.9425 43.5998 37.9425 42.4373V41.7345H41.4566C42.6191 41.7345 43.5651 40.7885 43.5651 39.626V38.2204C43.5651 37.6785 43.3535 37.1886 43.0169 36.8147C43.3542 36.4408 43.5651 35.9509 43.5651 35.4091V34.0034C43.5651 33.4615 43.3535 32.9717 43.0169 32.5978C43.3542 32.2239 43.5651 31.734 43.5651 31.1921V29.7865C43.5651 29.2446 43.3535 28.7547 43.0169 28.3808C43.3542 28.0069 43.5651 27.5171 43.5651 26.9752V25.5695C43.5651 25.0277 43.3535 24.5378 43.0169 24.1639C43.3542 23.79 43.5651 23.3001 43.5651 22.7582V21.3526C43.5651 20.8107 43.3535 20.3208 43.0169 19.9469C43.3542 19.573 43.5651 19.0832 43.5651 18.5413V17.1356C43.5651 16.0378 42.7182 15.1431 41.645 15.0462ZM4.90978 24.8667C3.74731 24.8667 2.80131 23.9207 2.80131 22.7582C2.80131 21.5958 3.74731 20.6498 4.90978 20.6498C6.07225 20.6498 7.01825 21.5958 7.01825 22.7582C7.01825 23.9207 6.07225 24.8667 4.90978 24.8667ZM14.0465 17.8385C10.5584 17.8385 7.72107 15.0005 7.72107 11.5131C7.72107 8.02565 10.5584 5.18765 14.0465 5.18765C17.5346 5.18765 20.3719 8.02565 20.3719 11.5131C20.3719 15.0005 17.5346 17.8385 14.0465 17.8385ZM26.6973 19.9469C25.9221 19.9469 25.2917 19.3165 25.2917 18.5413C25.2917 17.7661 25.9221 17.1356 26.6973 17.1356C27.4725 17.1356 28.103 17.7661 28.103 18.5413C28.103 19.3165 27.4725 19.9469 26.6973 19.9469ZM30.9143 8.70176C30.9143 5.21435 33.7516 2.37635 37.2397 2.37635C40.7278 2.37635 43.5651 5.21435 43.5651 8.70176C43.5651 12.1892 40.7278 15.0272 37.2397 15.0272C33.7516 15.0272 30.9143 12.1892 30.9143 8.70176ZM32.3199 17.1356C32.3199 16.7484 32.6348 16.4328 33.0227 16.4328H33.7256V17.8385H35.1312V16.4328H36.5368V17.8385H37.9425V16.4328H39.3481V17.8385H40.7538V16.4328H41.4566C41.8446 16.4328 42.1594 16.7484 42.1594 17.1356V18.5413C42.1594 18.9286 41.8446 19.2441 41.4566 19.2441H33.0227C32.6348 19.2441 32.3199 18.9286 32.3199 18.5413V17.1356ZM42.1594 21.3526V22.7582C42.1594 23.1455 41.8446 23.4611 41.4566 23.4611H33.0227C32.6348 23.4611 32.3199 23.1455 32.3199 22.7582V21.3526C32.3199 20.9653 32.6348 20.6498 33.0227 20.6498H33.7256V22.0554H35.1312V20.6498H36.5368V22.0554H37.9425V20.6498H39.3481V22.0554H40.7538V20.6498H41.4566C41.8446 20.6498 42.1594 20.9653 42.1594 21.3526ZM42.1594 25.5695V26.9752C42.1594 27.3624 41.8446 27.678 41.4566 27.678H33.0227C32.6348 27.678 32.3199 27.3624 32.3199 26.9752V25.5695C32.3199 25.1823 32.6348 24.8667 33.0227 24.8667H33.7256V26.2724H35.1312V24.8667H36.5368V26.2724H37.9425V24.8667H39.3481V26.2724H40.7538V24.8667H41.4566C41.8446 24.8667 42.1594 25.1823 42.1594 25.5695ZM42.1594 29.7865V31.1921C42.1594 31.5794 41.8446 31.8949 41.4566 31.8949H33.0227C32.6348 31.8949 32.3199 31.5794 32.3199 31.1921V29.7865C32.3199 29.3992 32.6348 29.0837 33.0227 29.0837H33.7256V30.4893H35.1312V29.0837H36.5368V30.4893H37.9425V29.0837H39.3481V30.4893H40.7538V29.0837H41.4566C41.8446 29.0837 42.1594 29.3992 42.1594 29.7865ZM42.1594 34.0034V35.4091C42.1594 35.7963 41.8446 36.1119 41.4566 36.1119H37.8132C37.5222 35.2959 36.7491 34.7062 35.834 34.7062H35.1312V33.3006H36.5368V34.7062H37.9425V33.3006H39.3481V34.7062H40.7538V33.3006H41.4566C41.8446 33.3006 42.1594 33.6162 42.1594 34.0034ZM32.3199 34.0034C32.3199 33.6162 32.6348 33.3006 33.0227 33.3006H33.7256V34.7062H32.3199V34.0034ZM27.4001 36.1119H28.103V37.5175H29.5086V36.1119H30.9143V37.5175H32.3199V36.1119H33.7256V37.5175H35.1312V36.1119H35.834C36.222 36.1119 36.5368 36.4275 36.5368 36.8147V38.2204C36.5368 38.6076 36.222 38.9232 35.834 38.9232H27.4001C27.0122 38.9232 26.6973 38.6076 26.6973 38.2204V36.8147C26.6973 36.4275 27.0122 36.1119 27.4001 36.1119ZM16.155 38.9232C15.767 38.9232 15.4521 38.6076 15.4521 38.2204V36.8147C15.4521 36.4275 15.767 36.1119 16.155 36.1119H16.8578V37.5175H18.2634V36.1119H19.6691V37.5175H21.0747V36.1119H22.4804V37.5175H23.886V36.1119H24.5888C24.9768 36.1119 25.2917 36.4275 25.2917 36.8147V38.2204C25.2917 38.6076 24.9768 38.9232 24.5888 38.9232H16.155ZM4.90978 38.9232C4.52182 38.9232 4.20696 38.6076 4.20696 38.2204V36.8147C4.20696 36.4275 4.52182 36.1119 4.90978 36.1119H5.6126V37.5175H7.01825V36.1119H8.4239V37.5175H9.82955V36.1119H11.2352V37.5175H12.6408V36.1119H13.3437C13.7316 36.1119 14.0465 36.4275 14.0465 36.8147V38.2204C14.0465 38.6076 13.7316 38.9232 13.3437 38.9232H4.90978ZM18.2634 33.3006V31.8949H19.6691V33.3006H21.0747V31.8949H22.4804V33.3006H23.886V31.8949H24.5888C24.9768 31.8949 25.2917 32.2105 25.2917 32.5978V34.0034C25.2917 34.3907 24.9768 34.7062 24.5888 34.7062H16.155C15.767 34.7062 15.4521 34.3907 15.4521 34.0034V32.5978C15.4521 32.2105 15.767 31.8949 16.155 31.8949H16.8578V33.3006H18.2634ZM15.4521 28.3808C15.4521 27.9936 15.767 27.678 16.155 27.678H16.8578V29.0837H18.2634V27.678H19.6691V29.0837H21.0747V27.678H22.4804V29.0837H23.886V27.678H24.5888C24.9768 27.678 25.2917 27.9936 25.2917 28.3808V29.7865C25.2917 30.1737 24.9768 30.4893 24.5888 30.4893H16.155C15.767 30.4893 15.4521 30.1737 15.4521 29.7865V28.3808ZM4.20696 32.5978C4.20696 32.2105 4.52182 31.8949 4.90978 31.8949H5.6126V33.3006H7.01825V31.8949H8.4239V33.3006H9.82955V31.8949H11.2352V33.3006H12.6408V31.8949H13.3437C13.7316 31.8949 14.0465 32.2105 14.0465 32.5978V34.0034C14.0465 34.3907 13.7316 34.7062 13.3437 34.7062H4.90978C4.52182 34.7062 4.20696 34.3907 4.20696 34.0034V32.5978ZM13.3437 43.1401H4.90978C4.52182 43.1401 4.20696 42.8246 4.20696 42.4373V41.0317C4.20696 40.6444 4.52182 40.3288 4.90978 40.3288H5.6126V41.7345H7.01825V40.3288H8.4239V41.7345H9.82955V40.3288H11.2352V41.7345H12.6408V40.3288H13.3437C13.7316 40.3288 14.0465 40.6444 14.0465 41.0317V42.4373C14.0465 42.8246 13.7316 43.1401 13.3437 43.1401ZM24.5888 43.1401H16.155C15.767 43.1401 15.4521 42.8246 15.4521 42.4373V41.0317C15.4521 40.6444 15.767 40.3288 16.155 40.3288H16.8578V41.7345H18.2634V40.3288H19.6691V41.7345H21.0747V40.3288H22.4804V41.7345H23.886V40.3288H24.5888C24.9768 40.3288 25.2917 40.6444 25.2917 41.0317V42.4373C25.2917 42.8246 24.9768 43.1401 24.5888 43.1401ZM36.5368 42.4373C36.5368 42.8246 36.222 43.1401 35.834 43.1401H27.4001C27.0122 43.1401 26.6973 42.8246 26.6973 42.4373V41.0317C26.6973 40.6444 27.0122 40.3288 27.4001 40.3288H28.103V41.7345H29.5086V40.3288H30.9143V41.7345H32.3199V40.3288H33.7256V41.7345H35.1312V40.3288H35.834C36.222 40.3288 36.5368 40.6444 36.5368 41.0317V42.4373ZM42.1594 39.626C42.1594 40.0133 41.8446 40.3288 41.4566 40.3288H37.8132C37.7197 40.066 37.5777 39.8291 37.3943 39.626C37.7316 39.2521 37.9425 38.7622 37.9425 38.2204V37.5175H39.3481V38.9232H40.7538V37.5175H41.4566C41.8446 37.5175 42.1594 37.8331 42.1594 38.2204V39.626Z" fill="#6551BC"/>
</g>
<defs>
<clipPath id="clip0">
<rect width="44.9807" height="44.9807" fill="white" transform="translate(0.692841 0.267578)"/>
</clipPath>
</defs>
</svg>
