<svg width="47" height="46" viewBox="0 0 47 46" fill="none" xmlns="http://www.w3.org/2000/svg">
<g clip-path="url(#clip0)">
<path d="M2.01553 12.8086C1.99887 12.8992 1.98948 12.991 1.98645 13.0828V14.9682C1.98887 15.7452 2.47144 16.4398 3.19938 16.7128V19.487C3.20271 20.4158 3.93307 21.1791 4.86063 21.2231V37.2501C3.93307 37.2943 3.20271 38.0577 3.19938 38.9862V41.7522C2.46992 42.0324 1.98766 42.7322 1.98645 43.5131V45.3574C1.98645 45.7012 2.26575 45.9802 2.60957 45.9802H44.6233C44.9671 45.9802 45.2461 45.7012 45.2461 45.3574V43.5131C45.2449 42.7319 44.7626 42.0321 44.0335 41.7522V38.9698C44.0301 38.041 43.2995 37.2777 42.3722 37.2337V21.2231C43.2995 21.1791 44.0301 20.4158 44.0335 19.487V16.7128C44.7611 16.4398 45.2437 15.7452 45.2461 14.9682V13.0952C45.2434 13.0034 45.2337 12.9116 45.217 12.8211C45.5302 12.9598 45.8965 12.8186 46.0352 12.5054C46.174 12.1925 46.0328 11.8262 45.7199 11.6872L23.903 0.220459C23.7209 0.12443 23.5034 0.12443 23.3214 0.220459L1.5048 11.6748C1.20035 11.8356 1.08373 12.2122 1.24397 12.5166C1.39059 12.7947 1.72139 12.9201 2.01553 12.8086ZM4.44532 17.7924V16.833H11.6302V17.7842L4.44532 17.7924ZM20.4433 21.2273V37.2501C19.5157 37.2943 18.7853 38.0577 18.782 38.9862V41.6359H12.8676V38.9862C12.8643 38.0577 12.1339 37.2943 11.2064 37.2501V21.2231C12.1339 21.1791 12.8643 20.4158 12.8676 19.487V16.833H18.7735V19.4831C18.775 20.4133 19.506 21.1785 20.4351 21.2231L20.4433 21.2273ZM20.0279 17.7924V16.833H27.2131V17.7842L20.0279 17.7924ZM36.0262 21.2273V37.2501C35.0986 37.2943 34.368 38.0577 34.3646 38.9862V41.6359H28.4506V38.9862C28.4472 38.0577 27.7166 37.2943 26.7893 37.2501V21.2231C27.7166 21.1791 28.4472 20.4158 28.4506 19.487V16.833H34.3564V19.4831C34.3577 20.4133 35.0886 21.1785 36.0177 21.2231L36.0262 21.2273ZM35.6109 17.7924V16.833H42.7957V17.7842L35.6109 17.7924ZM42.7957 40.685V41.6359H35.6024V40.685H42.7957ZM27.2131 40.685V41.6359H20.0198V40.685H27.2131ZM21.0579 19.9895H20.5181C20.2427 19.9895 20.0198 19.7666 20.0198 19.4912V19.0384H27.2046V19.4912C27.2046 19.7666 26.9817 19.9895 26.7063 19.9895H21.0579ZM25.5476 21.2355V37.2419H21.681V21.2355H25.5476ZM21.0579 38.4879H26.7063C26.9817 38.4879 27.2046 38.7108 27.2046 38.9862V39.439H20.0198V38.9862C20.0198 38.7108 20.2427 38.4879 20.5181 38.4879H21.0579ZM11.622 40.685V41.6359H4.43684V40.685H11.622ZM4.43684 19.5037V19.0384H11.622V19.4912C11.622 19.7666 11.399 19.9895 11.1234 19.9895H4.92273C4.6507 19.9829 4.43441 19.759 4.43684 19.487V19.5037ZM9.96073 21.2479V37.2419H6.09809V21.2355L9.96073 21.2479ZM4.43684 38.9989C4.43684 38.7232 4.65979 38.5003 4.93515 38.5003H11.1234C11.399 38.5003 11.622 38.7232 11.622 38.9989V39.4515H4.43684V38.9989ZM44.0002 43.5383V44.7591H3.22422V43.5383C3.22422 43.1826 3.5123 42.8942 3.86794 42.8942H43.3564C43.7069 42.8942 43.9935 43.1751 44.0002 43.5255V43.5383ZM42.7875 38.9989V39.4515H35.6024V38.9989C35.6024 38.7232 35.8253 38.5003 36.1007 38.5003H42.3016C42.5673 38.5069 42.7809 38.7205 42.7875 38.9862V38.9989ZM37.2636 37.2543V21.2355H41.1302V37.2419L37.2636 37.2543ZM42.7875 19.5037C42.7875 19.779 42.5646 20.002 42.2892 20.002H36.1049C35.8296 20.002 35.6066 19.779 35.6066 19.5037V19.0384H42.7915L42.7875 19.5037ZM23.6122 1.4664L42.1644 11.218H5.05996L23.6122 1.4664ZM3.22422 13.0952C3.22422 12.7514 3.50321 12.4724 3.84704 12.4724H43.3773C43.7212 12.4724 44.0002 12.7514 44.0002 13.0952V14.9809C44.0002 15.3248 43.7212 15.6038 43.3773 15.6038H3.84704C3.50321 15.6038 3.22422 15.3248 3.22422 14.9809V13.0952Z" fill="#6551BC"/>
</g>
<defs>
<clipPath id="clip0">
<rect width="45.8457" height="45.8457" fill="white" transform="translate(0.692932 0.148438)"/>
</clipPath>
</defs>
</svg>
