<svg width="47" height="47" viewBox="0 0 47 47" fill="none" xmlns="http://www.w3.org/2000/svg">
<g clip-path="url(#clip0)">
<path d="M21.8075 9.85094V11.3913C21.8075 12.0819 22.3693 12.6437 23.0599 12.6437H24.5188C25.2093 12.6437 25.7711 12.0819 25.7711 11.3913V9.85094H27.3114C28.002 9.85094 28.5638 9.28914 28.5638 8.59863V7.13975C28.5638 6.44925 28.002 5.88745 27.3114 5.88745H25.7711V4.34703C25.7711 3.65653 25.2093 3.09473 24.5188 3.09473H23.0599C22.3693 3.09473 21.8075 3.65653 21.8075 4.34703V5.88745H20.2672C19.5767 5.88745 19.0149 6.44925 19.0149 7.13975V8.59863C19.0149 9.28914 19.5767 9.85094 20.2672 9.85094H21.8075ZM20.3574 7.22997H21.8977C22.5882 7.22997 23.15 6.66817 23.15 5.97757V4.43725H24.4286V5.97757C24.4286 6.66817 24.9904 7.22997 25.681 7.22997H27.2213V8.50841H25.681C24.9904 8.50841 24.4286 9.07021 24.4286 9.76081V11.3011H23.15V9.76081C23.15 9.07021 22.5882 8.50841 21.8977 8.50841H20.3574V7.22997Z" fill="#6551BC"/>
<path d="M41.8825 11.3417H40.923V9.72702C40.923 8.72236 40.1057 7.90512 39.1012 7.90512H31.248C31.2481 7.89322 31.2489 7.88158 31.2489 7.86968C31.2488 3.75654 27.9025 0.410156 23.7893 0.410156C19.6761 0.410156 16.3297 3.75654 16.3297 7.86968C16.3297 7.88158 16.3305 7.89322 16.3306 7.90512H13.7489C13.3781 7.90512 13.0776 8.20558 13.0776 8.57638C13.0776 8.94719 13.3781 9.24765 13.7489 9.24765H16.4594C16.5987 9.99006 16.8478 10.6939 17.1899 11.3417H7.99793V9.72702C7.99793 9.46272 8.213 9.24765 8.4773 9.24765H10.6142C10.985 9.24765 11.2855 8.94719 11.2855 8.57638C11.2855 8.20558 10.985 7.90512 10.6142 7.90512H8.47739C7.47273 7.90512 6.65549 8.72245 6.65549 9.72702V11.3417H5.69603C5.00401 11.3417 4.44104 11.9047 4.44104 12.5967V21.4376C4.44104 22.6437 5.08384 23.7024 6.04482 24.2895V45.5846C6.04482 45.9554 6.34528 46.2559 6.71608 46.2559H40.8625C41.2333 46.2559 41.5338 45.9554 41.5338 45.5846V24.2895C42.4947 23.7024 43.1375 22.6437 43.1375 21.4377V12.5967C43.1374 11.9047 42.5744 11.3417 41.8825 11.3417ZM31.1191 9.24756H39.1011C39.3654 9.24756 39.5804 9.46263 39.5804 9.72693V11.3416H30.3886C30.7308 10.6938 30.9798 9.98997 31.1191 9.24756ZM23.7893 1.75268C27.1622 1.75268 29.9063 4.49672 29.9063 7.86968C29.9063 11.2426 27.1622 13.9868 23.7893 13.9868C20.4163 13.9868 17.6723 11.2426 17.6723 7.86968C17.6723 4.49672 20.4163 1.75268 23.7893 1.75268ZM5.78357 21.4376V18.4882H9.77731V21.4376C9.77731 22.5387 8.88149 23.4346 7.78044 23.4346C6.67939 23.4346 5.78357 22.5387 5.78357 21.4376ZM40.1912 44.9134H30.1312V39.9596C30.1312 39.5888 29.8307 39.2884 29.4599 39.2884C29.0891 39.2884 28.7886 39.5888 28.7886 39.9596V44.9134H18.7898V34.0047C18.7898 31.248 21.0325 29.0053 23.7892 29.0053C26.5458 29.0053 28.7885 31.2481 28.7885 34.0047V36.8578C28.7885 37.2286 29.089 37.529 29.4598 37.529C29.8306 37.529 30.1311 37.2286 30.1311 36.8578V34.0047C30.1311 30.5078 27.2861 27.6628 23.7892 27.6628C20.2922 27.6628 17.4472 30.5078 17.4472 34.0047V44.9135H7.38735V24.7532C7.51641 24.7684 7.64744 24.7771 7.78053 24.7771C8.86976 24.7771 9.83871 24.2527 10.4487 23.4432C11.0586 24.2527 12.0276 24.7771 13.1168 24.7771C14.206 24.7771 15.175 24.2527 15.7849 23.4432C16.3949 24.2527 17.3638 24.7771 18.4531 24.7771C19.5423 24.7771 20.5113 24.2527 21.1212 23.4433C21.7312 24.2527 22.7 24.7771 23.7893 24.7771C24.8787 24.7771 25.8475 24.2527 26.4575 23.4432C27.0674 24.2527 28.0364 24.7771 29.1256 24.7771C30.2148 24.7771 31.1838 24.2527 31.7937 23.4432C32.4037 24.2527 33.3726 24.7771 34.4619 24.7771C35.5511 24.7771 36.5201 24.2527 37.13 23.4432C37.74 24.2527 38.7089 24.7771 39.7982 24.7771C39.9312 24.7771 40.0623 24.7684 40.1913 24.7532V44.9134H40.1912ZM11.1198 21.4376V18.4882H15.1136V21.4376C15.1136 22.5387 14.2178 23.4346 13.1167 23.4346C12.0157 23.4346 11.1198 22.5387 11.1198 21.4376ZM16.4561 21.4376V18.4882H20.4499V21.4376C20.4499 22.5387 19.554 23.4346 18.453 23.4346H18.4529C17.3519 23.4346 16.4561 22.5387 16.4561 21.4376ZM21.7924 21.4376V18.4882H25.7861V21.4376C25.7861 22.5387 24.8903 23.4346 23.7892 23.4346C22.6882 23.4346 21.7924 22.5387 21.7924 21.4376ZM27.1287 21.4376V18.4882H31.1224V21.4376C31.1224 22.5387 30.2266 23.4346 29.1254 23.4346C28.0245 23.4346 27.1287 22.5387 27.1287 21.4376ZM32.4649 21.4376V18.4882H36.4587V21.4376C36.4587 22.5387 35.5628 23.4346 34.4617 23.4346C33.3607 23.4346 32.4649 22.5387 32.4649 21.4376ZM41.7948 21.4376C41.7948 22.5387 40.899 23.4346 39.798 23.4346C38.6969 23.4346 37.8011 22.5387 37.8011 21.4376V18.4882H41.7948V21.4376H41.7948ZM41.7948 17.1456H5.78357V12.6842H18.0979C19.4673 14.3005 21.5099 15.3292 23.7893 15.3292C26.0686 15.3292 28.1112 14.3005 29.4807 12.6842H41.7949V17.1456H41.7948Z" fill="#6551BC"/>
<path d="M26.4573 35.5713H25.6806C25.3098 35.5713 25.0093 35.8717 25.0093 36.2426C25.0093 36.6134 25.3098 36.9138 25.6806 36.9138H25.786V39.7771H25.6806C25.3098 39.7771 25.0093 40.0775 25.0093 40.4483C25.0093 40.8191 25.3098 41.1196 25.6806 41.1196H26.4573C26.8281 41.1196 27.1286 40.8191 27.1286 40.4483V36.2426C27.1286 35.8717 26.8281 35.5713 26.4573 35.5713Z" fill="#6551BC"/>
</g>
<defs>
<clipPath id="clip0">
<rect width="45.8457" height="45.8457" fill="white" transform="translate(0.866394 0.410156)"/>
</clipPath>
</defs>
</svg>
