<svg width="47" height="47" viewBox="0 0 47 47" fill="none" xmlns="http://www.w3.org/2000/svg">
<g clip-path="url(#clip0)">
<path d="M22.0489 13.7186H6.98096V9.19824H22.0489V13.7186ZM8.48776 12.2118H20.5421V10.705H8.48776V12.2118Z" fill="#6551BC"/>
<path d="M14.5149 42.3473C12.4379 42.3473 10.7479 40.6573 10.7479 38.5803V31.0463C10.7479 28.9693 12.4379 27.2793 14.5149 27.2793C16.5923 27.2793 18.2819 28.9693 18.2819 31.0463V38.5803C18.2819 40.6573 16.5923 42.3473 14.5149 42.3473ZM14.5149 28.7861C13.2689 28.7861 12.2547 29.8003 12.2547 31.0463V38.5803C12.2547 39.8263 13.2689 40.8405 14.5149 40.8405C15.7613 40.8405 16.7751 39.8263 16.7751 38.5803V31.0463C16.7751 29.8003 15.7613 28.7861 14.5149 28.7861Z" fill="#6551BC"/>
<path d="M11.5012 34.0605H17.5284V35.5673H11.5012V34.0605Z" fill="#6551BC"/>
<path d="M10.7479 7.69129C9.50189 7.69129 8.48767 6.67707 8.48767 5.4311C8.48767 4.18512 9.50189 3.1709 10.7479 3.1709C11.9942 3.1709 13.0081 4.18512 13.0081 5.4311C13.0081 6.67707 11.9942 7.69129 10.7479 7.69129ZM10.7479 4.6777C10.3329 4.6777 9.99447 5.0154 9.99447 5.4311C9.99447 5.84679 10.3329 6.18449 10.7479 6.18449C11.1632 6.18449 11.5013 5.84679 11.5013 5.4311C11.5013 5.0154 11.1632 4.6777 10.7479 4.6777Z" fill="#6551BC"/>
<path d="M16.0217 4.67762C14.7757 4.67762 13.7615 3.6634 13.7615 2.41742C13.7615 1.17145 14.7757 0.157227 16.0217 0.157227C17.268 0.157227 18.2819 1.17145 18.2819 2.41742C18.2819 3.6634 17.268 4.67762 16.0217 4.67762ZM16.0217 1.66402C15.6067 1.66402 15.2683 2.00173 15.2683 2.41742C15.2683 2.83312 15.6067 3.17082 16.0217 3.17082C16.437 3.17082 16.7751 2.83312 16.7751 2.41742C16.7751 2.00173 16.437 1.66402 16.0217 1.66402Z" fill="#6551BC"/>
<path d="M22.0489 7.69129C20.8029 7.69129 19.7887 6.67707 19.7887 5.4311C19.7887 4.18512 20.8029 3.1709 22.0489 3.1709C23.2952 3.1709 24.3091 4.18512 24.3091 5.4311C24.3091 6.67707 23.2952 7.69129 22.0489 7.69129ZM22.0489 4.6777C21.6339 4.6777 21.2955 5.0154 21.2955 5.4311C21.2955 5.84679 21.6339 6.18449 22.0489 6.18449C22.4642 6.18449 22.8023 5.84679 22.8023 5.4311C22.8023 5.0154 22.4642 4.6777 22.0489 4.6777Z" fill="#6551BC"/>
<path d="M28.8295 6.18446C27.5836 6.18446 26.5693 5.17024 26.5693 3.92426C26.5693 2.67828 27.5836 1.66406 28.8295 1.66406C30.0759 1.66406 31.0897 2.67828 31.0897 3.92426C31.0897 5.17024 30.0759 6.18446 28.8295 6.18446ZM28.8295 3.17086C28.4146 3.17086 28.0761 3.50857 28.0761 3.92426C28.0761 4.33995 28.4146 4.67766 28.8295 4.67766C29.2449 4.67766 29.5829 4.33995 29.5829 3.92426C29.5829 3.50857 29.2449 3.17086 28.8295 3.17086Z" fill="#6551BC"/>
<path d="M43.1441 28.786H23.5557C22.3098 28.786 21.2955 27.7718 21.2955 26.5258V25.019C21.2955 23.773 22.3098 22.7588 23.5557 22.7588H43.1441C44.3905 22.7588 45.4043 23.773 45.4043 25.019V26.5258C45.4043 27.7718 44.3905 28.786 43.1441 28.786ZM23.5557 24.2656C23.1408 24.2656 22.8023 24.6033 22.8023 25.019V26.5258C22.8023 26.9415 23.1408 27.2792 23.5557 27.2792H43.1441C43.5594 27.2792 43.8975 26.9415 43.8975 26.5258V25.019C43.8975 24.6033 43.5594 24.2656 43.1441 24.2656H23.5557Z" fill="#6551BC"/>
<path d="M40.1304 46.8682H26.5692C24.4922 46.8682 22.8022 45.1782 22.8022 43.1012V28.0332H24.309V43.1012C24.309 44.3472 25.3233 45.3614 26.5692 45.3614H40.1304C41.3768 45.3614 42.3906 44.3472 42.3906 43.1012V28.0332H43.8974V43.1012C43.8974 45.1782 42.2078 46.8682 40.1304 46.8682Z" fill="#6551BC"/>
<path d="M40.8839 43.8541H25.8159V30.293H40.8839V43.8541ZM27.3227 42.3473H39.3771V31.7998H27.3227V42.3473Z" fill="#6551BC"/>
<path d="M33.3499 40.8406C30.8568 40.8406 28.8295 39.1506 28.8295 37.0736C28.8295 34.9966 30.8568 33.3066 33.3499 33.3066C35.8429 33.3066 37.8703 34.9966 37.8703 37.0736C37.8703 39.1506 35.8429 40.8406 33.3499 40.8406ZM33.3499 34.8134C31.6878 34.8134 30.3363 35.8277 30.3363 37.0736C30.3363 38.3196 31.6878 39.3338 33.3499 39.3338C35.0119 39.3338 36.3635 38.3196 36.3635 37.0736C36.3635 35.8277 35.0119 34.8134 33.3499 34.8134Z" fill="#6551BC"/>
<path d="M29.5829 36.3203H37.1169V37.8271H29.5829V36.3203Z" fill="#6551BC"/>
<path d="M14.5149 46.8663C13.9403 46.8663 13.366 46.8295 12.8087 46.7563C7.09017 46.0165 2.57199 41.5065 1.82116 35.789C1.19578 31.0306 3.22827 26.3609 7.12475 23.6059C8.9218 22.3356 9.99451 20.3436 9.99451 18.2787V12.9648H11.5013V18.2787C11.5013 20.8325 10.1906 23.284 7.99513 24.8368C4.55665 27.2688 2.76291 31.3907 3.31508 35.594C3.96658 40.5544 8.04038 44.6205 13.0022 45.2624C13.99 45.3919 15.041 45.3912 16.0272 45.2631C18.6972 44.9173 21.1697 43.5904 22.9906 41.5278L24.12 42.5251C22.0581 44.8622 19.2523 46.3646 16.2207 46.7571C15.6638 46.8295 15.0899 46.8663 14.5149 46.8663Z" fill="#6551BC"/>
<path d="M21.6136 25.2753C21.4253 25.1233 21.2329 24.9769 21.035 24.8368C18.8395 23.2832 17.5284 20.8318 17.5284 18.2787V12.9648H19.0352V18.2787C19.0352 20.3436 20.1083 22.3363 21.905 23.6066C22.1294 23.7655 22.3479 23.9314 22.562 24.104L21.6136 25.2753Z" fill="#6551BC"/>
<path d="M18.2819 18.2392C16.0346 18.2392 14.5098 17.7201 13.2848 17.3026C12.3861 16.9969 11.6098 16.7324 10.7479 16.7324V15.2256C11.8593 15.2256 12.7881 15.542 13.7707 15.8763C14.949 16.2773 16.284 16.7324 18.2819 16.7324V18.2392Z" fill="#6551BC"/>
</g>
<defs>
<clipPath id="clip0">
<rect width="46.7107" height="46.7107" fill="white" transform="translate(0.202515 0.157227)"/>
</clipPath>
</defs>
</svg>
