<svg width="46" height="46" viewBox="0 0 46 46" fill="none" xmlns="http://www.w3.org/2000/svg">
<path d="M44.5625 20.8438H27.3125C27.1219 20.8438 26.9391 20.9195 26.8043 21.0543C26.6695 21.1891 26.5938 21.3719 26.5938 21.5625V24.1572C25.2816 23.4024 23.795 23.0035 22.2812 23H20.125V21.5625C21.5405 20.5113 22.5202 18.9765 22.8778 17.25H23C23.5498 17.2469 24.0872 17.0862 24.5485 16.787C25.0098 16.4878 25.3756 16.0626 25.6025 15.5617C25.8295 15.0609 25.908 14.5056 25.829 13.9615C25.7499 13.4173 25.5164 12.9073 25.1562 12.4919V10.0625C25.1562 7.58438 24.1718 5.20776 22.4195 3.45547C20.6672 1.70318 18.2906 0.71875 15.8125 0.71875C13.3344 0.71875 10.9578 1.70318 9.20547 3.45547C7.45318 5.20776 6.46875 7.58438 6.46875 10.0625V12.4919C6.1086 12.9073 5.87514 13.4173 5.79605 13.9615C5.71695 14.5056 5.79554 15.0609 6.02249 15.5617C6.24944 16.0626 6.61523 16.4878 7.07651 16.787C7.53778 17.0862 8.07518 17.2469 8.625 17.25H8.76875C9.12084 18.9733 10.0926 20.5076 11.5 21.5625V23H9.34375C7.05626 23 4.86246 23.9087 3.24495 25.5262C1.62745 27.1437 0.71875 29.3375 0.71875 31.625V44.5625C0.71875 44.7531 0.794475 44.9359 0.929267 45.0707C1.06406 45.2055 1.24688 45.2812 1.4375 45.2812H25.1562V43.8438H19.2984L17.25 31.74L18.1197 30.0006L19.7728 30.8272C19.8816 30.8831 20.0028 30.9103 20.125 30.9062C20.2757 30.9066 20.4227 30.8597 20.5452 30.772C20.6677 30.6843 20.7596 30.5603 20.8078 30.4175L22.7916 24.4375C24.1709 24.5408 25.4911 25.04 26.5938 25.875V44.5625C26.5938 44.7531 26.6695 44.9359 26.8043 45.0707C26.9391 45.2055 27.1219 45.2812 27.3125 45.2812H44.5625C44.7531 45.2812 44.9359 45.2055 45.0707 45.0707C45.2055 44.9359 45.2812 44.7531 45.2812 44.5625V21.5625C45.2812 21.3719 45.2055 21.1891 45.0707 21.0543C44.9359 20.9195 44.7531 20.8438 44.5625 20.8438ZM23 15.8125V12.9375C23.3812 12.9375 23.7469 13.089 24.0165 13.3585C24.2861 13.6281 24.4375 13.9938 24.4375 14.375C24.4375 14.7562 24.2861 15.1219 24.0165 15.3915C23.7469 15.661 23.3812 15.8125 23 15.8125ZM7.1875 14.375C7.1875 13.9938 7.33895 13.6281 7.60853 13.3585C7.87812 13.089 8.24375 12.9375 8.625 12.9375V15.8125C8.24375 15.8125 7.87812 15.661 7.60853 15.3915C7.33895 15.1219 7.1875 14.7562 7.1875 14.375ZM8.625 11.5C8.38218 11.5037 8.14076 11.5375 7.90625 11.6006V10.0625C7.90625 7.96563 8.73923 5.95465 10.2219 4.47194C11.7046 2.98923 13.7156 2.15625 15.8125 2.15625C17.9094 2.15625 19.9204 2.98923 21.4031 4.47194C22.8858 5.95465 23.7188 7.96563 23.7188 10.0625V11.6006C23.4842 11.5375 23.2428 11.5037 23 11.5C23 11.3094 22.9243 11.1266 22.7895 10.9918C22.6547 10.857 22.4719 10.7812 22.2812 10.7812C21.7233 10.7812 21.1731 10.6514 20.6741 10.4018C20.1751 10.1523 19.741 9.79008 19.4062 9.34375L18.5437 8.19375C18.4768 8.10448 18.39 8.03203 18.2902 7.98213C18.1904 7.93223 18.0803 7.90625 17.9688 7.90625C17.8572 7.90625 17.7471 7.93223 17.6473 7.98213C17.5475 8.03203 17.4607 8.10448 17.3938 8.19375L16.5312 9.34375C16.1965 9.79008 15.7624 10.1523 15.2634 10.4018C14.7644 10.6514 14.2142 10.7812 13.6562 10.7812H9.34375C9.15313 10.7812 8.97031 10.857 8.83552 10.9918C8.70073 11.1266 8.625 11.3094 8.625 11.5ZM10.0625 15.8125V12.2188H13.6562C14.4373 12.2188 15.2077 12.0369 15.9063 11.6876C16.6049 11.3383 17.2126 10.8311 17.6812 10.2063L17.9688 9.82531L18.2563 10.2063C19.0583 11.2687 20.2457 11.9734 21.5625 12.1684V15.8125C21.5625 17.3375 20.9567 18.8 19.8784 19.8784C18.8 20.9567 17.3375 21.5625 15.8125 21.5625C14.2875 21.5625 12.825 20.9567 11.7466 19.8784C10.6683 18.8 10.0625 17.3375 10.0625 15.8125ZM15.8125 23C16.8024 23.0005 17.7815 22.7949 18.6875 22.3962V23.46L15.8125 26.91L12.9375 23.46V22.3962C13.8435 22.7949 14.8226 23.0005 15.8125 23ZM11.9169 29.1741L10.3428 24.4375H11.8809L14.6769 27.7941L11.9169 29.1741ZM2.15625 31.625C2.15165 29.804 2.83846 28.0491 4.0779 26.7149C5.31734 25.3807 7.01699 24.5668 8.83344 24.4375L10.8172 30.3887C10.8604 30.5369 10.9501 30.6672 11.0731 30.7604C11.196 30.8536 11.3457 30.9047 11.5 30.9062C11.6125 30.9056 11.7233 30.8785 11.8234 30.8272L13.4766 30.0006L14.375 31.74L12.3266 43.8438H6.46875V33.7812H5.03125V43.8438H2.15625V31.625ZM13.7856 43.8438L15.7047 32.3438H15.9203L17.8394 43.8438H13.7856ZM16.0856 30.9062H15.5394L14.7631 29.3609L15.8125 28.8362L16.8619 29.3609L16.0856 30.9062ZM19.6794 29.1741L16.9194 27.7941L19.7441 24.4375H21.2822L19.6794 29.1741ZM32.3438 22.2812H39.5312V23.7188H32.3438V22.2812ZM43.8438 43.8438H28.0312V22.2812H30.9062V24.4375C30.9062 24.6281 30.982 24.8109 31.1168 24.9457C31.2516 25.0805 31.4344 25.1562 31.625 25.1562H40.25C40.4406 25.1562 40.6234 25.0805 40.7582 24.9457C40.893 24.8109 40.9688 24.6281 40.9688 24.4375V22.2812H43.8438V43.8438Z" fill="#6551BC"/>
<path d="M33.0625 26.5938H30.1875C29.9969 26.5938 29.8141 26.6695 29.6793 26.8043C29.5445 26.9391 29.4688 27.1219 29.4688 27.3125V30.1875C29.4688 30.3781 29.5445 30.5609 29.6793 30.6957C29.8141 30.8305 29.9969 30.9062 30.1875 30.9062H33.0625C33.2531 30.9062 33.4359 30.8305 33.5707 30.6957C33.7055 30.5609 33.7812 30.3781 33.7812 30.1875V27.3125C33.7812 27.1219 33.7055 26.9391 33.5707 26.8043C33.4359 26.6695 33.2531 26.5938 33.0625 26.5938ZM32.3438 29.4688H30.9062V28.0312H32.3438V29.4688Z" fill="#6551BC"/>
<path d="M33.0625 32.3438H30.1875C29.9969 32.3438 29.8141 32.4195 29.6793 32.5543C29.5445 32.6891 29.4688 32.8719 29.4688 33.0625V35.9375C29.4688 36.1281 29.5445 36.3109 29.6793 36.4457C29.8141 36.5805 29.9969 36.6562 30.1875 36.6562H33.0625C33.2531 36.6562 33.4359 36.5805 33.5707 36.4457C33.7055 36.3109 33.7812 36.1281 33.7812 35.9375V33.0625C33.7812 32.8719 33.7055 32.6891 33.5707 32.5543C33.4359 32.4195 33.2531 32.3438 33.0625 32.3438ZM32.3438 35.2188H30.9062V33.7812H32.3438V35.2188Z" fill="#6551BC"/>
<path d="M33.0625 38.0938H30.1875C29.9969 38.0938 29.8141 38.1695 29.6793 38.3043C29.5445 38.4391 29.4688 38.6219 29.4688 38.8125V41.6875C29.4688 41.8781 29.5445 42.0609 29.6793 42.1957C29.8141 42.3305 29.9969 42.4062 30.1875 42.4062H33.0625C33.2531 42.4062 33.4359 42.3305 33.5707 42.1957C33.7055 42.0609 33.7812 41.8781 33.7812 41.6875V38.8125C33.7812 38.6219 33.7055 38.4391 33.5707 38.3043C33.4359 38.1695 33.2531 38.0938 33.0625 38.0938ZM32.3438 40.9688H30.9062V39.5312H32.3438V40.9688Z" fill="#6551BC"/>
<path d="M35.2188 26.5938H42.4062V28.0312H35.2188V26.5938Z" fill="#6551BC"/>
<path d="M35.2188 29.4688H42.4062V30.9062H35.2188V29.4688Z" fill="#6551BC"/>
<path d="M35.2188 32.3438H42.4062V33.7812H35.2188V32.3438Z" fill="#6551BC"/>
<path d="M35.2188 35.2188H42.4062V36.6562H35.2188V35.2188Z" fill="#6551BC"/>
<path d="M35.2188 38.0938H42.4062V39.5312H35.2188V38.0938Z" fill="#6551BC"/>
<path d="M35.2188 40.9688H42.4062V42.4062H35.2188V40.9688Z" fill="#6551BC"/>
</svg>
