<svg width="46" height="45" viewBox="0 0 46 45" fill="none" xmlns="http://www.w3.org/2000/svg">
<g clip-path="url(#clip0)">
<path d="M45.3571 19.7418H43.7268L41.2971 21.0203C41.0236 20.8694 40.7391 20.7415 40.4323 20.6646L37.3759 19.8998V19.5523C38.7281 18.6086 39.5531 17.0495 39.5531 15.3888V14.1206C39.5531 11.3022 37.3447 8.94367 34.6305 8.86148C34.4927 8.85794 34.357 8.8629 34.2206 8.86963L35.0131 7.01444L31.1713 3.17371L28.9066 4.64773C28.0461 4.16312 27.1361 3.78585 26.1909 3.52123L25.6316 0.878906H20.1025L19.5432 3.52193C18.598 3.78656 17.6873 4.16383 16.8275 4.64844L14.5628 3.17442L10.7242 7.01303L11.5032 8.86963C11.4734 8.86821 11.4451 8.8629 11.4154 8.86219C10.026 8.82181 8.71741 9.32873 7.7234 10.2937C6.72797 11.258 6.18031 12.552 6.18031 13.9378V15.3888C6.18031 17.0495 7.00464 18.6078 8.35679 19.5516V19.8998L6.3631 20.3982L2.74944 18.2908H0.376343V33.3239L7.51369 35.7027H8.90375L9.07733 35.0948L11.2652 36.408C11.3009 37.5976 12.2549 38.5547 13.4434 38.5965C13.4852 39.7801 14.4364 40.7312 15.6199 40.773C15.6617 41.9565 16.6128 42.9077 17.7964 42.9495C17.8396 44.1607 18.8315 45.1341 20.0526 45.1341C20.506 45.1341 20.9506 44.9928 21.3243 44.7409L21.9669 45.3084C22.3697 45.663 22.8883 45.8596 23.4268 45.8596H23.561C24.7683 45.8596 25.7506 44.8837 25.7659 43.6803C26.96 43.6651 27.9271 42.698 27.9423 41.5038C29.1372 41.4886 30.105 40.5201 30.1188 39.3252C31.3247 39.2969 32.2981 38.3117 32.2981 37.0991C32.2981 37.0262 32.2946 36.9542 32.2872 36.8816L45.3571 30.3472V19.7418ZM38.1021 14.1206V15.3888C38.1021 16.6765 37.4064 17.8795 36.2862 18.5281L35.9235 18.7379L35.9263 21.0337L39.551 21.9392L31.5726 26.1384V24.184C31.5726 23.2088 31.1787 22.3157 30.5336 21.6558L33.0236 21.0337V18.7361L32.6616 18.5267C31.5422 17.8795 30.8472 16.6765 30.8472 15.3888V13.9378C30.8472 12.9484 31.2382 12.0231 31.9492 11.3341C32.6595 10.6455 33.6018 10.2742 34.5869 10.3125C36.525 10.3706 38.1021 12.0791 38.1021 14.1206ZM23.9606 25.5681L20.6764 24.5184C19.1797 24.0388 17.5597 23.9672 16.0276 24.3066L15.6117 24.3987V24.184C15.6117 23.1836 16.2901 22.315 17.2601 22.072L21.4157 21.0337V18.7361L21.0537 18.5267C19.9343 17.8795 19.2392 16.6765 19.2392 15.3888V13.9378C19.2392 12.9484 19.6303 12.0231 20.3413 11.3341C21.0515 10.6455 21.9999 10.2742 22.979 10.3125C24.9171 10.3706 26.4942 12.0791 26.4942 14.1206V15.3888C26.4942 16.6765 25.7984 17.8795 24.6783 18.5281L24.3156 18.7379L24.3184 21.0337L28.4734 22.072C29.4433 22.315 30.1217 23.1836 30.1217 24.184V26.9025L29.9424 26.9967H29.4978L25.0375 25.7222C24.6861 25.6226 24.3241 25.5819 23.9606 25.5681ZM15.7743 11.7373C17.1368 9.09741 19.879 7.40837 22.8667 7.40837C25.8261 7.40837 28.5566 9.07474 29.9293 11.6788C29.5839 12.3714 29.3962 13.1383 29.3962 13.9378V15.3888C29.3962 17.0495 30.2205 18.6078 31.5726 19.5516V19.8998L28.6707 20.6263L25.768 19.8998V19.5523C27.1201 18.6086 27.9452 17.0495 27.9452 15.3888V14.1206C27.9452 11.3022 25.7368 8.94367 23.0226 8.86148C21.6339 8.82074 20.3246 9.32802 19.3306 10.293C18.3359 11.258 17.7882 12.552 17.7882 13.9378V15.3888C17.7882 17.0495 18.6126 18.6078 19.9647 19.5516V19.8998L17.0627 20.6263L14.16 19.8998V19.5523C15.5122 18.6086 16.3372 17.0495 16.3372 15.3888V14.1206C16.3372 13.2669 16.1318 12.4564 15.7743 11.7373ZM12.4377 7.34956L14.7555 5.03173L16.7956 6.35944L17.186 6.11997C18.1641 5.52059 19.2212 5.08168 20.3275 4.81706L20.7738 4.71008L21.2786 2.3299H24.4555L24.9589 4.70937L25.4052 4.81599C26.5115 5.08097 27.5686 5.51988 28.5467 6.11927L28.9371 6.35874L30.9772 5.03102L33.2922 7.34673L32.4692 9.27347C31.9092 9.51436 31.3899 9.85337 30.9378 10.2916C30.9081 10.3206 30.8826 10.3518 30.8535 10.3816C29.1443 7.66449 26.1226 5.95738 22.8667 5.95738C19.5874 5.95738 16.5572 7.68043 14.8522 10.4251C14.396 9.9476 13.8533 9.56076 13.2518 9.29047L12.4377 7.34956ZM9.80778 21.0337V18.7361L9.44574 18.5267C8.32633 17.8795 7.6313 16.6765 7.6313 15.3888V13.9378C7.6313 12.9484 8.02238 12.0231 8.73336 11.3341C9.44362 10.6455 10.388 10.2742 11.3711 10.3125C13.3091 10.3706 14.8863 12.0791 14.8863 14.1206V15.3888C14.8863 16.6765 14.1905 17.8795 13.0704 18.5281L12.7076 18.7379L12.7105 21.0337L15.1998 21.6558C14.5547 22.3157 14.1608 23.2088 14.1608 24.184V24.7214L11.8978 25.2245L11.9566 25.019L11.9843 23.6782L8.15806 21.4461L9.80778 21.0337ZM1.82733 19.7418H2.35622L7.57391 22.7851L4.94115 33.3158L1.82733 32.2775V19.7418ZM7.74891 34.2517L6.32094 33.7759L8.8786 23.5464L10.5333 24.5114V24.7186L7.80984 34.2517H7.74891ZM12.7098 36.3403C12.7098 36.1264 12.7962 35.9167 12.9478 35.765L14.2231 34.4898C14.3747 34.3381 14.5844 34.2517 14.7984 34.2517C15.2469 34.2517 15.6117 34.6166 15.6117 35.065C15.6117 35.279 15.5253 35.4887 15.3737 35.6403L14.0984 36.9156C13.9468 37.0672 13.7371 37.1537 13.5231 37.1537C13.0746 37.1537 12.7098 36.7888 12.7098 36.3403ZM14.8863 38.5168C14.8863 38.3029 14.9727 38.0931 15.1243 37.9415L16.3996 36.6662C16.5512 36.5146 16.7609 36.4282 16.9749 36.4282C17.4234 36.4282 17.7882 36.7931 17.7882 37.2415C17.7882 37.4555 17.7018 37.6652 17.5502 37.8168L16.2749 39.0921C16.1233 39.2437 15.9136 39.3302 15.6996 39.3302C15.2511 39.3302 14.8863 38.9653 14.8863 38.5168ZM17.0627 40.6933C17.0627 40.4793 17.1492 40.2696 17.3008 40.118L18.5761 38.8427C18.7277 38.6911 18.9374 38.6047 19.1514 38.6047C19.5998 38.6047 19.9647 38.9695 19.9647 39.418C19.9647 39.632 19.8783 39.8417 19.7267 39.9933L18.4514 41.2686C18.2998 41.4202 18.0901 41.5067 17.8761 41.5067C17.4276 41.5067 17.0627 41.1418 17.0627 40.6933ZM20.0526 43.6831C19.6041 43.6831 19.2392 43.3183 19.2392 42.8698C19.2392 42.6558 19.3257 42.4461 19.4773 42.2945L20.7526 41.0192C20.9042 40.8676 21.1139 40.7812 21.3279 40.7812C21.7763 40.7812 22.1412 41.146 22.1412 41.5945C22.1412 41.8085 22.0548 42.0182 21.9032 42.1698L20.6279 43.4451C20.4763 43.5967 20.2665 43.6831 20.0526 43.6831ZM23.561 44.4086H23.4268C23.2418 44.4086 23.0647 44.3413 22.9269 44.2191L22.3842 43.7405L22.929 43.1957C23.1235 43.0012 23.2744 42.7699 23.386 42.5216L24.0456 43.0707C24.2181 43.2145 24.3177 43.4263 24.3177 43.652C24.3177 44.0693 23.9783 44.4086 23.561 44.4086ZM30.0671 37.8792H29.9417C29.7596 37.8792 29.5818 37.8147 29.4426 37.6978L25.5083 34.4193L24.5788 35.5344L28.3993 38.7177C28.5711 38.8615 28.6707 39.0733 28.6707 39.299C28.6707 39.7163 28.3313 40.0557 27.914 40.0557H27.7556C27.5796 40.0557 27.4074 39.9933 27.2717 39.88L23.3311 36.5965L22.4016 37.7116L26.2221 40.8952C26.3946 41.038 26.4942 41.2498 26.4942 41.4755C26.4942 41.8928 26.1548 42.2322 25.7375 42.2322C25.4591 42.2322 25.1877 42.1333 24.9741 41.9558L23.3549 40.6062C22.9981 39.8771 22.2652 39.3688 21.4069 39.3383C21.3651 38.1548 20.4139 37.2036 19.2304 37.1618C19.1886 35.9783 18.2374 35.0271 17.0539 34.9853C17.0114 33.7742 16.0195 32.8007 14.7984 32.8007C14.2022 32.8007 13.6188 33.0423 13.1972 33.4639L11.9219 34.7391C11.8458 34.8153 11.7827 34.9017 11.7186 34.9875L9.49003 33.6502L11.4437 26.8125L16.3415 25.7236C17.6263 25.4363 18.981 25.4986 20.2339 25.8996L21.3027 26.2415L17.6795 28.0531C16.8516 28.4679 16.3372 29.3008 16.3372 30.2268V30.3702C16.3372 31.7103 17.4276 32.8007 18.7677 32.8007C19.2081 32.8007 19.6413 32.681 20.0179 32.4539L22.7193 30.8339C23.262 30.5087 23.9904 30.5799 24.459 31.0015L30.5889 36.5182C30.7529 36.6669 30.8472 36.8781 30.8472 37.0991C30.8472 37.5295 30.4975 37.8792 30.0671 37.8792ZM43.9061 29.4503L31.6835 35.5621C31.6439 35.5199 31.6024 35.4799 31.5588 35.4409L25.43 29.9242C24.893 29.4396 24.1987 29.1732 23.4753 29.1732C22.9464 29.1732 22.4271 29.3171 21.9722 29.5898L19.2697 31.2105C19.1181 31.3019 18.9448 31.3497 18.7677 31.3497C18.2271 31.3497 17.7882 30.9108 17.7882 30.3702V30.2268C17.7882 29.853 17.9958 29.5179 18.3295 29.3511L22.3764 27.3276C23.069 26.9808 23.8912 26.9032 24.6376 27.1179L29.1967 28.4201L30.3009 28.4477L43.9061 21.287V29.4503Z" fill="#6551BC"/>
</g>
<defs>
<clipPath id="clip0">
<rect width="44.9807" height="44.9807" fill="white" transform="translate(0.376343 0.0136719)"/>
</clipPath>
</defs>
</svg>
