<svg width="47" height="47" viewBox="0 0 47 47" fill="none" xmlns="http://www.w3.org/2000/svg">
<g clip-path="url(#clip0)">
<path d="M46.7121 24.0559V18.1226C46.7121 16.4773 45.6531 15.054 44.0775 14.5813L39.3176 13.1534V12.0301C40.6568 11.0935 41.536 9.54277 41.536 7.78875V5.56969C41.536 2.71552 39.214 0.393555 36.3599 0.393555C33.5057 0.393555 31.1837 2.71552 31.1837 5.56969V7.78803C31.1837 9.54277 32.0629 11.0935 33.4021 12.0294V13.1526L29.2073 14.4113C27.6331 13.0035 25.6274 12.2247 23.4979 12.2247C21.377 12.2247 19.4367 13.0017 17.9372 14.282L14.1764 13.1534V12.0301C15.5156 11.0935 16.3948 9.54277 16.3948 7.78875V5.56969C16.3948 2.71552 14.0728 0.393555 11.2187 0.393555C8.36449 0.393555 6.04252 2.71552 6.04252 5.56969V7.78803C6.04252 9.54277 6.9217 11.0935 8.26087 12.0294V13.1526L3.50104 14.5806C1.92538 15.054 0.866394 16.4773 0.866394 18.1226V24.0559H2.34529V18.1226C2.34529 17.1355 2.98039 16.2812 3.92636 15.9981L8.68764 14.5694C9.11802 15.1283 9.95062 15.9219 11.2187 15.9219C12.4867 15.9219 13.3193 15.1283 13.7497 14.5694L16.7822 15.4789C15.8196 16.6896 15.1784 18.163 14.9838 19.7752C14.0396 18.7718 12.7026 18.1403 11.2187 18.1403C8.36449 18.1403 6.04252 20.4623 6.04252 23.3164V25.5348C6.04252 27.2895 6.9217 28.8402 8.26087 29.7761V30.8994L3.50104 32.3273C1.92538 32.8007 0.866394 34.224 0.866394 35.8693V42.542H9.73976C10.147 42.542 10.4792 42.8742 10.4792 43.2815V46.2393H37.0993V43.2815C37.0993 42.8742 37.4315 42.542 37.8388 42.542H46.7121V35.8693C46.7121 34.224 45.6531 32.8007 44.0775 32.3281L39.3176 30.9001V29.7768C40.6568 28.8402 41.536 27.2895 41.536 25.5355V23.3171C41.536 20.463 39.214 18.141 36.3599 18.141C34.912 18.141 33.6032 18.74 32.6626 19.7011V19.0003C32.6626 17.5398 31.869 16.2252 30.6306 15.5302L33.8288 14.5701C34.2592 15.1283 35.0918 15.9219 36.3599 15.9219C37.6279 15.9219 38.4605 15.1283 38.8909 14.5694L43.6529 15.9981C44.5981 16.2812 45.2332 17.1355 45.2332 18.1226V24.0559H46.7121ZM11.2187 1.87245C13.2572 1.87245 14.9159 3.53115 14.9159 5.56969H11.5248C11.0551 5.56969 10.5944 5.37905 10.2626 5.04687L9.73976 4.52406L9.21695 5.04687C8.88514 5.37905 8.42443 5.56969 7.95469 5.56969H7.52142C7.52142 3.53115 9.18012 1.87245 11.2187 1.87245ZM7.52142 7.78803V7.04858H7.95469C8.59882 7.04858 9.21406 6.86372 9.73976 6.51855C10.2655 6.86372 10.8807 7.04858 11.5248 7.04858H14.9159V7.78803C14.9159 9.82656 13.2572 11.4853 11.2187 11.4853C9.18012 11.4853 7.52142 9.82656 7.52142 7.78803ZM11.2187 14.4431C10.4326 14.4431 9.92318 13.7827 9.73976 13.5003V12.7468C10.2084 12.8865 10.7049 12.9642 11.2187 12.9642C11.7324 12.9642 12.2289 12.8865 12.6975 12.7461V13.4996C12.5141 13.7834 12.0047 14.4431 11.2187 14.4431ZM31.5444 27.4217C31.921 28.3781 32.5709 29.1959 33.4021 29.7768V30.9001L28.643 32.3281C28.4863 32.3746 28.3339 32.4353 28.1851 32.5025L27.4865 32.3414V30.8846C28.2769 30.2495 28.8997 29.4154 29.282 28.4593C30.1338 28.3846 30.9324 28.0221 31.5444 27.4217ZM23.7893 32.1898C24.5738 32.1898 25.3223 32.0331 26.0076 31.7543V32.5595L23.7893 34.2233L21.5709 32.5595V31.7543C22.2562 32.0331 23.0047 32.1898 23.7893 32.1898ZM20.6629 33.7272L22.4656 35.0797L20.6112 36.1925L20.1422 33.8478L20.6629 33.7272ZM22.9722 39.5843H24.6063L25.1815 44.7604H22.397L22.9722 39.5843ZM24.7349 38.1054H22.8429L22.4183 36.8319L23.7893 36.0098L25.1595 36.8319L24.7349 38.1054ZM25.1129 35.0797L26.9157 33.7272L27.4363 33.847L26.9673 36.1918L25.1129 35.0797ZM30.6071 26.2876C30.3511 26.5685 30.0258 26.7652 29.6731 26.8851C29.6936 26.684 29.7048 26.4804 29.7048 26.2742V22.7358C30.5006 23.0377 31.0927 23.7378 31.1725 24.5743C31.2332 25.2109 31.0328 25.8186 30.6071 26.2876ZM28.2259 26.2742C28.2259 28.7211 26.2362 30.7109 23.7893 30.7109C21.3424 30.7109 19.3526 28.7211 19.3526 26.2742V22.577H21.863C23.4744 22.577 25.0425 22.1748 26.4445 21.4064L27.0294 22.577H28.2259V26.2742ZM17.9055 26.8851C17.5527 26.7652 17.2274 26.5685 16.9714 26.2876C16.5457 25.8193 16.3453 25.2109 16.406 24.5751C16.4858 23.7385 17.0779 23.0377 17.8737 22.7366V26.2742C17.8737 26.4804 17.8849 26.684 17.9055 26.8851ZM18.2965 28.4593C18.6781 29.4154 19.3009 30.2495 20.092 30.8846V32.3414L19.3934 32.5025C19.2439 32.4353 19.0923 32.3754 18.9363 32.3281L14.1764 30.9001V29.7768C15.0069 29.1959 15.6575 28.3781 16.0341 27.4217C16.6461 28.0221 17.4447 28.3846 18.2965 28.4593ZM11.2187 19.6192C13.2572 19.6192 14.9159 21.2779 14.9159 23.3164H14.4826C14.0129 23.3164 13.5522 23.1258 13.2204 22.7936L12.6975 22.2708L12.1747 22.7936C11.8429 23.1258 11.3822 23.3164 10.9125 23.3164H7.52142C7.52142 21.2779 9.18012 19.6192 11.2187 19.6192ZM7.52142 25.5348V24.7953H10.9125C11.5566 24.7953 12.1718 24.6105 12.6975 24.2653C13.2233 24.6105 13.8385 24.7953 14.4826 24.7953H14.9159V25.5348C14.9159 27.5733 13.2572 29.232 11.2187 29.232C9.18012 29.232 7.52142 27.5733 7.52142 25.5348ZM11.2187 30.7109C11.7324 30.7109 12.2289 30.6333 12.6975 30.4928V31.2463C12.5141 31.5301 12.0047 32.1898 11.2187 32.1898C10.4326 32.1898 9.92318 31.5294 9.73976 31.2471V30.4935C10.2084 30.6333 10.7049 30.7109 11.2187 30.7109ZM9.73976 41.0632H6.78197V35.887H5.30308V41.0632H2.34529V35.8693C2.34529 34.8822 2.98039 34.0279 3.92636 33.7449L8.68764 32.3162C9.11802 32.8751 9.95062 33.6687 11.2187 33.6687C12.4867 33.6687 13.3193 32.8751 13.7497 32.3162L16.5537 33.1578L14.4913 33.6333C12.1289 34.1789 10.4792 36.2531 10.4792 38.6769V39.5843H11.9581V38.6769C11.9581 36.9453 13.137 35.4642 14.8242 35.0743L18.7005 34.1796L19.5721 38.5394L21.1192 37.6114L21.5568 38.9246L20.9091 44.7604H17.1342V38.8448H15.6553V44.7604H11.9581V43.2815C11.9581 42.0586 10.9627 41.0632 9.73976 41.0632ZM43.6522 33.7449C44.5981 34.0279 45.2332 34.8822 45.2332 35.8693V41.0632H42.2754V35.887H40.7965V41.0632H37.8388C36.6159 41.0632 35.6204 42.0586 35.6204 43.2815V44.7604H31.9232V38.8448H30.4443V44.7604H26.6694L26.021 38.9246L26.4586 37.6114L28.0057 38.5394L28.8773 34.1796L32.7543 35.0743C34.4416 35.4642 35.6204 36.9453 35.6204 38.6769V39.5843H37.0993V38.6769C37.0993 36.2531 35.4496 34.1789 33.0872 33.6333L31.0249 33.1578L33.8288 32.3162C34.2592 32.8751 35.0918 33.6687 36.3599 33.6687C37.6279 33.6687 38.4605 32.8751 38.8909 32.3162L43.6522 33.7449ZM37.8388 31.2471C37.6553 31.5301 37.1459 32.1898 36.3599 32.1898C35.5724 32.1898 35.0622 31.5272 34.881 31.2471V30.4928C35.3496 30.6333 35.8461 30.7109 36.3599 30.7109C36.8736 30.7109 37.3701 30.6333 37.8388 30.4928V31.2471ZM36.3599 29.232C34.3213 29.232 32.6626 27.5733 32.6626 25.5348V24.7953H33.0959C33.74 24.7953 34.3553 24.6105 34.881 24.2653C35.4067 24.6105 36.0219 24.7953 36.666 24.7953H40.0571V25.5348C40.0571 27.5733 38.3984 29.232 36.3599 29.232ZM36.3599 19.6192C38.3984 19.6192 40.0571 21.2779 40.0571 23.3164H36.666C36.1963 23.3164 35.7356 23.1258 35.4038 22.7936L34.881 22.2708L34.3582 22.7936C34.0263 23.1258 33.5656 23.3164 33.0959 23.3164H32.6626C32.6626 21.2779 34.3213 19.6192 36.3599 19.6192ZM31.1837 21.9003C30.5295 21.405 29.7168 21.0981 28.8383 21.0981H27.9436L27.0341 19.2791L26.3372 19.7434C25.0071 20.6301 23.4603 21.0981 21.863 21.0981H18.7402C17.8618 21.0981 17.049 21.405 16.3948 21.9003V20.8067C16.3948 16.8907 19.5818 13.7036 23.4979 13.7036C25.3952 13.7036 27.1796 14.4423 28.5209 15.7837L29.3055 16.5682L29.4712 16.6238C30.4952 16.9654 31.1837 17.92 31.1837 18.9996V21.9003ZM36.3599 1.87245C38.3984 1.87245 40.0571 3.53115 40.0571 5.56969H39.6238C39.1541 5.56969 38.6934 5.37905 38.3616 5.04687L37.8388 4.52406L37.3159 5.04687C36.9841 5.37905 36.5234 5.56969 36.0537 5.56969H32.6626C32.6626 3.53115 34.3213 1.87245 36.3599 1.87245ZM32.6626 7.78803V7.04858H36.0537C36.6978 7.04858 37.3131 6.86372 37.8388 6.51855C38.3645 6.86372 38.9797 7.04858 39.6238 7.04858H40.0571V7.78803C40.0571 9.82656 38.3984 11.4853 36.3599 11.4853C34.3213 11.4853 32.6626 9.82656 32.6626 7.78803ZM36.3599 14.4431C35.5724 14.4431 35.0622 13.7805 34.881 13.5003V12.7461C35.3496 12.8865 35.8461 12.9642 36.3599 12.9642C36.8736 12.9642 37.3701 12.8865 37.8388 12.7461V13.4996C37.6553 13.7834 37.1459 14.4431 36.3599 14.4431Z" fill="#6551BC"/>
<path d="M17.8737 0.393555H19.3526V1.87245H17.8737V0.393555Z" fill="#6551BC"/>
<path d="M17.8737 3.35156H19.3526V11.4855H17.8737V3.35156Z" fill="#6551BC"/>
<path d="M28.226 0.393555H29.7049V1.87245H28.226V0.393555Z" fill="#6551BC"/>
<path d="M28.226 3.35156H29.7049V11.4855H28.226V3.35156Z" fill="#6551BC"/>
<path d="M20.8315 3.35156H22.3104V8.52769H20.8315V3.35156Z" fill="#6551BC"/>
<path d="M20.8315 10.0059H22.3104V11.4848H20.8315V10.0059Z" fill="#6551BC"/>
<path d="M25.2681 3.35156H26.747V8.52769H25.2681V3.35156Z" fill="#6551BC"/>
<path d="M25.2681 10.0059H26.747V11.4848H25.2681V10.0059Z" fill="#6551BC"/>
</g>
<defs>
<clipPath id="clip0">
<rect width="45.8457" height="45.8457" fill="white" transform="translate(0.866394 0.393555)"/>
</clipPath>
</defs>
</svg>
