<svg width="8" height="12" viewBox="0 0 8 12" fill="none" xmlns="http://www.w3.org/2000/svg">
    <path d="M0.90636 0.807516L0.510551 1.16486C0.386941 1.27732 0.318843 1.42694 0.318843 1.58686C0.318843 1.74668 0.386941 1.89648 0.510551 2.00894L4.99469 6.08525L0.505576 10.1663C0.381965 10.2785 0.313965 10.4283 0.313965 10.5882C0.313965 10.748 0.381965 10.8979 0.505576 11.0103L0.898945 11.3677C1.15475 11.6004 1.57144 11.6004 1.82725 11.3677L7.19129 6.50876C7.3148 6.39647 7.40183 6.24685 7.40183 6.08561L7.40183 6.08374C7.40183 5.92383 7.3147 5.77421 7.19129 5.66192L1.84178 0.807516C1.71827 0.695054 1.54871 0.633324 1.3729 0.633146C1.197 0.633146 1.02978 0.695054 0.90636 0.807516Z" fill="#6551BC"/>
</svg>