<svg width="12" height="8" viewBox="0 0 12 8" fill="none" xmlns="http://www.w3.org/2000/svg">
    <path d="M11.138 1.50304L10.7807 1.10723C10.6682 0.983621 10.5186 0.915523 10.3587 0.915523C10.1989 0.915523 10.0491 0.983621 9.93661 1.10723L5.8603 5.59137L1.7793 1.10226C1.66701 0.978645 1.51721 0.910645 1.35739 0.910645C1.19756 0.910645 1.04767 0.978645 0.935298 1.10226L0.577867 1.49562C0.345138 1.75143 0.345138 2.16812 0.577867 2.42393L5.4368 7.78797C5.54908 7.91148 5.69871 7.99851 5.85995 7.99851H5.86181C6.02172 7.99851 6.17135 7.91138 6.28363 7.78797L11.138 2.43846C11.2505 2.31495 11.3122 2.14539 11.3124 1.96958C11.3124 1.79368 11.2505 1.62646 11.138 1.50304Z" fill="#6551BC"/>
</svg>