<svg width="24" height="24" viewBox="0 0 24 24" fill="none" xmlns="http://www.w3.org/2000/svg">
<path d="M21.5975 20.5858C25.775 15.7674 24.3215 8.27677 18.64 5.35467C16.9992 2.1773 13.6828 0 9.86719 0C4.4267 0 0.000571754 4.42641 0.000571754 9.86719C0.000571754 12.2625 0.848447 14.5278 2.40231 16.3201L0.209775 18.4839C-0.2346 18.9225 0.073228 19.6845 0.700322 19.6875L5.99513 19.7127C7.81974 22.3678 10.8339 24 14.1326 24C14.1394 24 23.2942 23.9532 23.2996 23.9531C23.9245 23.9501 24.2359 23.1895 23.7901 22.7495L21.5975 20.5858ZM3.87948 15.8445C2.28493 14.247 1.40673 12.1242 1.40673 9.86719C1.40673 5.20181 5.2021 1.40625 9.86719 1.40625C14.5323 1.40625 18.3277 5.20181 18.3277 9.86719C18.3277 14.3378 14.7899 18.3642 9.59284 18.3236L2.40887 18.2894L3.87573 16.8418C4.15313 16.5679 4.15477 16.1204 3.87948 15.8445ZM14.1326 22.5938C11.6654 22.5938 9.37215 21.5396 7.77802 19.7212C10.4548 19.7388 9.74419 19.7344 9.86719 19.7344C16.2142 19.7344 20.9534 13.7808 19.462 7.56483C23.351 10.7417 23.6695 16.5545 20.1203 20.1102C19.845 20.386 19.8467 20.8336 20.1241 21.1074L21.591 22.555C21.5854 22.555 14.1381 22.5938 14.1326 22.5938Z" fill="#6551BC"/>
<path d="M5.67232 7.78125H14.1094C14.4977 7.78125 14.8124 7.46644 14.8124 7.07812C14.8124 6.68981 14.4977 6.375 14.1094 6.375H5.67232C5.284 6.375 4.96924 6.68981 4.96924 7.07812C4.96924 7.46644 5.28405 7.78125 5.67232 7.78125Z" fill="#6551BC"/>
<path d="M5.67232 10.5938H14.1094C14.4977 10.5938 14.8124 10.2789 14.8124 9.89062C14.8124 9.50231 14.4977 9.1875 14.1094 9.1875H5.67232C5.284 9.1875 4.96924 9.50231 4.96924 9.89062C4.96924 10.2789 5.28405 10.5938 5.67232 10.5938Z" fill="#6551BC"/>
<path d="M5.67232 13.4062H14.1094C14.4977 13.4062 14.8124 13.0914 14.8124 12.7031C14.8124 12.3148 14.4977 12 14.1094 12H5.67232C5.284 12 4.96924 12.3148 4.96924 12.7031C4.96924 13.0914 5.28405 13.4062 5.67232 13.4062Z" fill="#6551BC"/>
</svg>
