<svg width="25" height="25" viewBox="0 0 25 25" fill="none" xmlns="http://www.w3.org/2000/svg">
<path d="M3.14284 13.9957V13.8071H0.471441C0.125726 13.8072 0 14.1214 0 14.4672V20.3128C0 20.6585 0.125726 21.0356 0.471441 21.0356H2.35715C2.64565 21.0105 2.91058 21.1959 2.98571 21.4756L3.39429 23.2984L5.37426 21.1927C5.49349 21.0828 5.65236 21.0261 5.81424 21.0356H9.99423C10.3681 20.9915 10.6581 20.6883 10.6857 20.3128V17.2642H6.34854C4.58201 17.1979 3.17496 15.7632 3.14284 13.9957Z" fill="white"/>
<path d="M20.8998 3.75H6.34847C5.31132 3.75 4.3999 4.37857 4.3999 5.41571V13.9957C4.41536 15.0759 5.26927 15.9574 6.34847 16.0071H12.697C12.859 15.9975 13.0178 16.0543 13.137 16.1642L16.8455 20.1556L17.6941 16.4471C17.7558 16.1722 18.0104 15.9846 18.2913 16.0071H20.8998C21.937 16.0071 22.6284 15.0328 22.6284 13.9957V5.41571C22.6283 4.37857 21.9369 3.75 20.8998 3.75ZM7.19703 7.20709H14.7398C15.087 7.20709 15.3684 7.4885 15.3684 7.83566C15.3684 8.18282 15.087 8.46423 14.7398 8.46423H7.19703C6.84987 8.46423 6.56846 8.18282 6.56846 7.83566C6.56846 7.4885 6.84987 7.20709 7.19703 7.20709ZM19.7683 12.2356H7.19697C6.84981 12.2356 6.5684 11.9542 6.5684 11.6071C6.5684 11.2599 6.84981 10.9785 7.19697 10.9785H19.7683C20.1155 10.9785 20.3969 11.2599 20.3969 11.6071C20.3969 11.9542 20.1155 12.2356 19.7683 12.2356Z" fill="white"/>
</svg>
