<svg width="22" height="22" viewBox="0 0 22 22" fill="none" xmlns="http://www.w3.org/2000/svg">
<g clip-path="url(#clip0)">
<path d="M21.6305 9.83491L11.7598 0.840796C11.3266 0.445957 10.6732 0.446 10.2402 0.840753L0.369446 9.83495C0.0223886 10.1512 -0.0922519 10.6385 0.0773025 11.0763C0.2469 11.5141 0.659829 11.7969 1.12935 11.7969H2.70587V20.8084C2.70587 21.1657 2.99556 21.4554 3.35285 21.4554H8.7632C9.12049 21.4554 9.41018 21.1657 9.41018 20.8084V15.3369H12.5899V20.8084C12.5899 21.1657 12.8796 21.4554 13.2369 21.4554H18.647C19.0043 21.4554 19.294 21.1658 19.294 20.8084V11.7969H20.8708C21.3403 11.7969 21.7533 11.514 21.9229 11.0763C22.0922 10.6384 21.9776 10.1512 21.6305 9.83491Z" fill="white"/>
<path d="M19.125 1.83606H14.78L19.772 6.3751V2.483C19.772 2.12571 19.4823 1.83606 19.125 1.83606Z" fill="white"/>
</g>
<defs>
<clipPath id="clip0">
<rect width="22" height="22" fill="white"/>
</clipPath>
</defs>
</svg>
