<svg width="188" height="52" viewBox="0 0 188 52" fill="none" xmlns="http://www.w3.org/2000/svg">
<path d="M62.5901 32.5054C61.4964 33.3847 60.231 33.8351 58.7512 33.8351C57.0141 33.8351 55.5985 33.2775 54.5049 32.1836C53.4324 31.0685 52.8964 29.6101 52.8964 27.8301C52.8964 26.0499 53.411 24.613 54.4618 23.4979C55.5129 22.3826 56.8425 21.825 58.4724 21.825C59.9522 21.825 61.1746 22.1896 62.1826 22.9402L63.019 21.5677C61.8823 20.6026 60.3597 20.1094 58.451 20.1094C56.1562 20.1094 54.3331 20.8386 52.9821 22.3183C51.631 23.7767 50.9661 25.621 50.9661 27.8301C50.9661 30.1678 51.6738 32.0335 53.0679 33.449C54.4833 34.8431 56.3277 35.5507 58.5797 35.5507C60.4668 35.5507 62.3113 34.9074 63.3193 33.8779L62.5901 32.5054Z" fill="#112E3D"/>
<path d="M66.9576 29.3314H69.4025L74.0134 35.3364H76.2439L71.2468 28.9881C72.1477 28.7523 72.9197 28.2806 73.5416 27.5298C74.1849 26.7792 74.5067 25.8356 74.5067 24.7418C74.5067 21.7608 72.7266 20.281 69.1665 20.281C69.0592 20.281 68.4373 20.281 67.3006 20.3024C66.1639 20.3238 65.4564 20.3238 65.1345 20.3238V35.3364H66.9576V29.3314ZM69.0592 21.9968C71.3969 21.9968 72.5764 22.9189 72.5764 24.7634C72.5764 25.6211 72.2334 26.3074 71.547 26.8436C70.8823 27.3583 70.0887 27.6156 69.1665 27.6156H66.9576V22.0396C67.9011 22.0182 68.6089 21.9968 69.0592 21.9968Z" fill="#112E3D"/>
<path d="M78.9372 35.3363L80.846 30.7896H87.6874L89.6175 35.3363H91.5691L85.1138 20.238H83.5481L77.0928 35.3363H78.9372ZM86.9796 29.0739H81.5751L84.2773 22.6614L86.9796 29.0739Z" fill="#112E3D"/>
<path d="M95.0744 35.3363V29.0739H101.079V27.3581H95.0744V22.0395H101.723V20.3237H93.2513V35.3363H95.0744Z" fill="#112E3D"/>
<path d="M108.092 22.0395V35.3363H109.915V22.0395H115.17V20.3237H102.838V22.0395H108.092Z" fill="#112E3D"/>
<path d="M132.101 35.3281V20.3242H142.223V22.0844H134.092V26.7574H141.133V28.5176H134.092V35.3281H132.101ZM154.624 20.3242H156.615V28.9892C156.615 30.498 156.444 31.6959 156.105 32.5829C155.763 33.4666 155.148 34.1896 154.261 34.7449C153.37 35.3002 152.207 35.5796 150.762 35.5796C149.361 35.5796 148.212 35.3386 147.321 34.8531C146.427 34.3676 145.792 33.6692 145.411 32.7507C145.03 31.8322 144.838 30.5783 144.838 28.9892V20.3242H146.829V28.9856C146.829 30.2885 146.951 31.2524 147.192 31.8671C147.433 32.4852 147.845 32.9636 148.436 33.2956C149.022 33.6307 149.742 33.7985 150.59 33.7985C152.043 33.7985 153.081 33.4666 153.699 32.8065C154.317 32.143 154.624 30.8717 154.624 28.9856V20.3242ZM159.908 35.3281V20.3242H161.948L169.82 32.1011V20.3242H171.727V35.3281H169.687L161.815 23.5514V35.3281H159.908ZM175.062 35.3281V20.3242H180.231C181.398 20.3242 182.288 20.3941 182.903 20.5373C183.762 20.7364 184.496 21.0961 185.103 21.613C185.896 22.2835 186.486 23.1358 186.877 24.1766C187.272 25.2173 187.468 26.4082 187.468 27.7458C187.468 28.8845 187.335 29.8937 187.07 30.7739C186.804 31.654 186.462 32.3839 186.046 32.9602C185.627 33.5364 185.173 33.9905 184.677 34.3189C184.185 34.6506 183.587 34.9021 182.889 35.0732C182.187 35.2442 181.384 35.3281 180.476 35.3281H175.062ZM177.053 33.5679H180.252C181.241 33.5679 182.016 33.477 182.578 33.292C183.141 33.1069 183.587 32.8484 183.923 32.5131C184.391 32.0417 184.757 31.4061 185.02 30.6098C185.281 29.8135 185.414 28.8496 185.414 27.7145C185.414 26.1429 185.156 24.9344 184.642 24.0893C184.129 23.244 183.504 22.6783 182.767 22.3919C182.236 22.1858 181.38 22.0844 180.2 22.0844H177.053V33.5679Z" fill="#2B2A29"/>
<path fill-rule="evenodd" clip-rule="evenodd" d="M9.87003 34.6049V25.1042L14.0306 30.8948H14.5239L18.7059 25.0397V34.6049H22.1374V19.5924H18.899L14.5239 25.919L9.89145 19.5924H6.43851V34.6049H9.87003ZM42.1647 38.4567C42.8153 37.128 43.4359 35.7782 44.0139 34.4165C43.2527 34.5702 42.4248 34.6478 41.531 34.6478C41.3164 34.6478 40.6945 34.6478 39.6651 34.6263C38.6357 34.6049 37.8635 34.6049 37.3274 34.6049H36.9627V19.5924H37.263C37.499 19.5924 38.2281 19.5924 39.4077 19.571C40.5872 19.5495 41.3592 19.5281 41.7025 19.5281C44.3861 19.5281 46.4144 20.1644 47.8058 21.4179C48.6888 14.684 47.4439 8.4277 42.416 3.87352C34.3954 -2.7368 20.5988 -0.460884 10.6237 7.47478C-4.53447 19.5335 -1.36791 33.5642 7.08777 42.8428C16.0961 52.7282 32.2928 58.6169 42.1647 38.4567ZM45.9507 29.2861C46.122 28.7628 46.2851 28.2398 46.4388 27.717C46.4693 27.4784 46.4849 27.2292 46.4849 26.97C46.4849 24.2891 44.5548 22.7451 41.6595 22.7451C41.102 22.7451 40.6731 22.7665 40.3942 22.8093V31.388C40.6945 31.4094 41.102 31.4308 41.6381 31.4308C43.689 31.4308 45.1994 30.6701 45.9507 29.2861ZM34.3113 34.6049V31.388H28.628V28.6642H33.4535V25.4472H28.628V22.8093H34.0968V19.5924H25.1965V34.6049H34.3113ZM122.387 28.3539C124.824 28.3539 126.799 30.3297 126.799 32.7666C126.799 35.2034 124.824 37.1793 122.387 37.1793C119.95 37.1793 117.974 35.2034 117.974 32.7666C117.974 30.3297 119.95 28.3539 122.387 28.3539Z" fill="url(#paint0_linear)"/>
<defs>
<linearGradient id="paint0_linear" x1="53.61" y1="63.7408" x2="108.119" y2="1.56233" gradientUnits="userSpaceOnUse">
<stop stop-color="#836BED"/>
<stop offset="1" stop-color="#874B96"/>
</linearGradient>
</defs>
</svg>
