<svg width="159" height="44" viewBox="0 0 159 44" fill="none" xmlns="http://www.w3.org/2000/svg">
<path d="M56.075 26.1254C55.1798 26.8484 54.1441 27.2187 52.9329 27.2187C51.5109 27.2187 50.3523 26.7602 49.4571 25.8608C48.5793 24.9439 48.1406 23.7448 48.1406 22.2813C48.1406 20.8175 48.5618 19.6361 49.4219 18.7192C50.2822 17.8022 51.3705 17.3437 52.7046 17.3437C53.9159 17.3437 54.9164 17.6435 55.7415 18.2607L56.4261 17.1322C55.4957 16.3386 54.2494 15.9331 52.6871 15.9331C50.8088 15.9331 49.3166 16.5327 48.2107 17.7494C47.1048 18.9485 46.5605 20.4649 46.5605 22.2813C46.5605 24.2033 47.1399 25.7374 48.281 26.9012C49.4394 28.0475 50.9492 28.6293 52.7924 28.6293C54.3371 28.6293 55.8468 28.1003 56.6719 27.2539L56.075 26.1254V26.1254Z" fill="#112E3D"/>
<path d="M59.6499 23.5157H61.6511L65.4252 28.4531H67.251L63.1607 23.2334C63.8981 23.0395 64.53 22.6516 65.0391 22.0343C65.5656 21.4172 65.8291 20.6414 65.8291 19.742C65.8291 17.2909 64.3719 16.0742 61.458 16.0742C61.3702 16.0742 60.8611 16.0742 59.9307 16.0918C59.0003 16.1094 58.4211 16.1094 58.1577 16.1094V28.4531H59.6499V23.5157V23.5157ZM61.3702 17.485C63.2836 17.485 64.2491 18.2432 64.2491 19.7597C64.2491 20.4649 63.9682 21.0293 63.4065 21.4702C62.8624 21.8933 62.2128 22.1049 61.458 22.1049H59.6499V17.5202C60.4222 17.5026 61.0015 17.485 61.3702 17.485V17.485Z" fill="#112E3D"/>
<path d="M69.4555 28.4532L71.0178 24.7148H76.6177L78.1976 28.4532H79.7949L74.5111 16.0391H73.2296L67.9458 28.4532H69.4555ZM76.0384 23.3041H71.6147L73.8265 18.0316L76.0384 23.3041Z" fill="#112E3D"/>
<path d="M82.6641 28.453V23.304H87.5793V21.8932H82.6641V17.5201H88.106V16.1094H81.1719V28.453H82.6641Z" fill="#112E3D"/>
<path d="M93.3194 17.5201V28.453H94.8115V17.5201H99.1124V16.1094H89.0186V17.5201H93.3194Z" fill="#112E3D"/>
<path d="M112.971 28.4459V16.1094H121.256V17.5567H114.601V21.3989H120.364V22.8462H114.601V28.4459H112.971V28.4459ZM131.407 16.1094H133.036V23.2339C133.036 24.4745 132.896 25.4594 132.619 26.1888C132.339 26.9153 131.836 27.5098 131.11 27.9664C130.381 28.423 129.429 28.6527 128.245 28.6527C127.099 28.6527 126.158 28.4545 125.429 28.0553C124.697 27.6562 124.177 27.0819 123.866 26.3267C123.554 25.5715 123.397 24.5405 123.397 23.2339V16.1094H125.026V23.231C125.026 24.3022 125.126 25.0947 125.323 25.6002C125.521 26.1084 125.858 26.5018 126.341 26.7747C126.822 27.0503 127.41 27.1882 128.105 27.1882C129.294 27.1882 130.143 26.9153 130.649 26.3726C131.155 25.8271 131.407 24.7817 131.407 23.231V16.1094V16.1094ZM135.732 28.4459V16.1094H137.401L143.845 25.7926V16.1094H145.406V28.4459H143.736L137.293 18.7629V28.4459H135.732V28.4459ZM148.136 28.4459V16.1094H152.367C153.321 16.1094 154.05 16.1668 154.553 16.2846C155.257 16.4483 155.857 16.744 156.354 17.1691C157.003 17.7204 157.487 18.4211 157.807 19.2769C158.13 20.1326 158.29 21.1118 158.29 22.2116C158.29 23.1478 158.181 23.9776 157.964 24.7014C157.747 25.4249 157.466 26.0251 157.126 26.499C156.783 26.9727 156.412 27.3461 156.006 27.6161C155.603 27.8888 155.114 28.0956 154.542 28.2363C153.967 28.3769 153.31 28.4459 152.567 28.4459H148.136V28.4459ZM149.765 26.9986H152.384C153.193 26.9986 153.827 26.9239 154.288 26.7717C154.748 26.6196 155.114 26.4071 155.388 26.1313C155.771 25.7437 156.071 25.2211 156.286 24.5664C156.5 23.9116 156.609 23.1191 156.609 22.1858C156.609 20.8936 156.397 19.8999 155.977 19.2051C155.557 18.5101 155.045 18.0449 154.442 17.8094C154.008 17.64 153.307 17.5567 152.341 17.5567H149.765V26.9986V26.9986Z" fill="#2B2A29"/>
<path fill-rule="evenodd" clip-rule="evenodd" d="M8.4228 28.6782V20.8102L11.9665 25.6056H12.3867L15.9486 20.7569V28.6782H18.8714V16.2457H16.1131L12.3867 21.4851L8.44104 16.2457H5.50004V28.6782H8.4228ZM35.9294 31.868C36.4835 30.7676 37.0121 29.6498 37.5044 28.5221C36.8561 28.6494 36.151 28.7136 35.3896 28.7136C35.2069 28.7136 34.6772 28.7136 33.8004 28.6959C32.9236 28.6782 32.2659 28.6782 31.8093 28.6782H31.4987V16.2457H31.7544C31.9554 16.2457 32.5765 16.2457 33.5812 16.228C34.5858 16.2103 35.2434 16.1925 35.5357 16.1925C37.8215 16.1925 39.549 16.7195 40.7341 17.7576C41.4863 12.1809 40.426 6.99987 36.1435 3.22839C29.312 -2.24585 17.5609 -0.361075 9.06472 6.21073C-3.84607 16.197 -1.14899 27.8163 6.05304 35.5002C13.7257 43.6867 27.5211 48.5633 35.9294 31.868ZM39.1541 24.2735C39.3 23.8401 39.4389 23.4069 39.5699 22.9741C39.5958 22.7764 39.6091 22.5701 39.6091 22.3554C39.6091 20.1353 37.9651 18.8566 35.4991 18.8566C35.0243 18.8566 34.6589 18.8743 34.4215 18.9098V26.0141C34.6772 26.0318 35.0243 26.0496 35.4808 26.0496C37.2277 26.0496 38.5141 25.4196 39.1541 24.2735ZM29.2404 28.6782V26.0141H24.3997V23.7584H28.5097V21.0944H24.3997V18.9098H29.0576V16.2457H21.4769V28.6782H29.2404ZM104.258 23.5014C106.333 23.5014 108.016 25.1377 108.016 27.1558C108.016 29.1738 106.333 30.8101 104.258 30.8101C102.182 30.8101 100.499 29.1738 100.499 27.1558C100.499 25.1377 102.182 23.5014 104.258 23.5014Z" fill="url(#paint0_linear)"/>
<defs>
<linearGradient id="paint0_linear" x1="48.6617" y1="52.7863" x2="93.6198" y2="0.041314" gradientUnits="userSpaceOnUse">
<stop stop-color="#836BED"/>
<stop offset="1" stop-color="#874B96"/>
</linearGradient>
</defs>
</svg>
