<svg width="25" height="25" viewBox="0 0 25 25" fill="none" xmlns="http://www.w3.org/2000/svg">
<g clip-path="url(#clip0)">
<path d="M22.806 10.3799L13.0556 0.628092C12.4805 0.0544583 11.5503 0.0612454 10.9828 0.62736C10.412 1.19958 10.412 2.12868 10.9828 2.70017L20.7346 12.4513C21.3059 13.0226 22.2346 13.0226 22.806 12.4513C23.3788 11.8785 23.3788 10.9527 22.806 10.3799Z" fill="white"/>
<path d="M10.2596 4.0481L10.1862 4.41597C9.66924 7.00181 8.41289 9.45841 6.71362 11.4495L12.0187 16.7545C14.0095 15.0556 16.4322 13.7655 19.0182 13.2479L19.3867 13.1745L10.2596 4.0481Z" fill="white"/>
<path d="M5.74118 12.5483L2.11554 16.1732C1.25884 17.0299 1.25528 18.4208 2.11554 19.281L4.18693 21.3524C5.04362 22.2091 6.43444 22.2126 7.2947 21.3524L10.92 17.7271L5.74118 12.5483ZM6.25905 18.2454C5.97297 18.5315 5.50944 18.5315 5.22335 18.2454C4.93727 17.9593 4.93727 17.4958 5.22335 17.2097L6.25905 16.174C6.54513 15.8879 7.00866 15.8879 7.29475 16.174C7.58083 16.4601 7.58083 16.9236 7.29475 17.2097L6.25905 18.2454Z" fill="white"/>
<path d="M13.9779 21.7421L14.9743 20.7458C15.8346 19.8856 15.8318 18.4948 14.9743 17.6388L14.2343 16.8982C13.8253 17.173 13.4346 17.4715 13.0548 17.79L13.9386 18.6752C14.224 18.9591 14.226 19.4212 13.9386 19.7101L12.9258 20.7229L11.4375 19.2809L9.36597 21.3524L12.6891 24.5724C13.2562 25.141 14.1873 25.1442 14.7597 24.5717C15.3312 24.0002 15.3312 23.0711 14.7597 22.4996L13.9779 21.7421Z" fill="white"/>
<path d="M16.9368 0C16.5319 0 16.2043 0.327589 16.2043 0.732423V2.19727C16.2043 2.6021 16.5319 2.92969 16.9368 2.92969C17.3416 2.92969 17.6692 2.6021 17.6692 2.19727V0.732423C17.6692 0.327589 17.3416 0 16.9368 0Z" fill="white"/>
<path d="M22.7961 5.85938H21.3313C20.9265 5.85938 20.5989 6.18696 20.5989 6.5918C20.5989 6.99663 20.9265 7.32422 21.3313 7.32422H22.7961C23.201 7.32422 23.5286 6.99663 23.5286 6.5918C23.5286 6.18696 23.201 5.85938 22.7961 5.85938Z" fill="white"/>
<path d="M21.8491 1.67941C21.563 1.39332 21.0995 1.39332 20.8134 1.67941L19.3486 3.14425C19.0625 3.43034 19.0625 3.89386 19.3486 4.17995C19.6347 4.46603 20.0982 4.46608 20.3843 4.17995L21.8491 2.7151C22.1352 2.42902 22.1352 1.96549 21.8491 1.67941Z" fill="white"/>
</g>
<defs>
<clipPath id="clip0">
<rect width="25" height="25" fill="white"/>
</clipPath>
</defs>
</svg>
