<svg width="68" height="68" viewBox="0 0 68 68" fill="none" xmlns="http://www.w3.org/2000/svg">
<path d="M33.8815 8.64078C34.6202 8.64078 35.219 8.04193 35.219 7.30323V1.33755C35.219 0.598852 34.6202 0 33.8815 0C33.1428 0 32.5439 0.598852 32.5439 1.33755V7.30323C32.5441 8.04193 33.1429 8.64078 33.8815 8.64078Z" fill="#6551BC"/>
<path d="M66.5762 45.9513L64.2134 43.595C63.3728 42.7555 62.2525 42.2931 61.0588 42.2931C60.2955 42.2931 59.5628 42.483 58.9135 42.8388L54.4608 38.3914L54.6777 38.1748C56.4841 36.3649 56.4834 33.4237 54.6776 31.6199C54.0322 30.9733 53.227 30.5422 52.3492 30.3608C52.4701 29.9436 52.5337 29.5067 52.5337 29.0595C52.5337 27.8171 52.0511 26.652 51.1774 25.782C50.5319 25.1354 49.7268 24.7043 48.8491 24.5229C48.9699 24.1057 49.0336 23.6689 49.0336 23.2216C49.0336 21.979 48.5509 20.8141 47.6758 19.9427C47.0149 19.2827 46.2025 18.8648 45.3495 18.687C45.8058 17.1136 45.4159 15.3433 44.1781 14.1034C43.1477 13.0774 41.7496 12.6364 40.4022 12.7794L31.5788 11.1092C30.2332 10.854 28.5527 10.6852 27.4919 11.6527C27.425 11.7138 27.3567 11.7841 27.2895 11.8623C25.6447 11.2628 23.7264 11.6198 22.4093 12.9354C21.5355 13.8081 21.0542 14.9726 21.0542 16.2144C21.0542 16.6617 21.1176 17.0986 21.2383 17.5158C20.3615 17.6971 19.5573 18.1277 18.9141 18.7721C18.0386 19.644 17.5558 20.8072 17.5549 22.0475C17.5545 22.4959 17.6181 22.9342 17.7395 23.3526C16.8623 23.5334 16.0575 23.9632 15.4123 24.6076C14.5368 25.4822 14.0547 26.6474 14.0547 27.8885C14.0547 28.8392 14.3385 29.7448 14.8645 30.5098C14.2004 30.7349 13.5921 31.1096 13.0828 31.6184C11.2752 33.4237 11.2746 36.365 13.084 38.1776L13.3001 38.3928L8.84689 42.8379C7.19191 42.0587 5.15284 42.3506 3.78713 43.7146L1.4228 46.0723C0.581831 46.9122 0.118846 48.0326 0.118713 49.227C0.118713 50.4215 0.581831 51.542 1.4228 52.382L4.37349 55.3292C4.89611 55.8512 5.74306 55.8507 6.26501 55.3281C6.7871 54.8055 6.78656 53.9585 6.26395 53.4366L3.31325 50.4895C2.9783 50.1549 2.79382 49.7065 2.79382 49.2271C2.79382 48.7478 2.9783 48.2995 3.31246 47.9658L5.67692 45.6079C6.26767 45.0179 7.17185 44.9299 7.85849 45.3405C7.90684 45.4131 7.96275 45.4822 8.02677 45.5463C8.14139 45.6612 8.27221 45.7493 8.41113 45.8137L21.9704 59.353C22.0348 59.4934 22.1232 59.6255 22.2386 59.7411C22.351 59.8535 22.4792 59.9405 22.6152 60.0046C22.9019 60.3288 23.0603 60.7429 23.0603 61.1846C23.0603 61.6641 22.8759 62.1123 22.5409 62.4468L20.1788 64.8061C19.4809 65.501 18.3456 65.5009 17.6498 64.8083L14.6991 61.8573C14.1768 61.3349 13.33 61.3349 12.8076 61.8573C12.2853 62.3796 12.2853 63.2265 12.8076 63.7488L15.7604 66.7019C16.6296 67.5674 17.771 68 18.9129 68C20.0551 68 21.1978 67.5668 22.068 66.7004L24.4315 64.3397C25.2725 63.4997 25.7356 62.3792 25.7356 61.1846C25.7356 60.3321 25.4985 59.5179 25.0577 58.8159L30.0695 53.8102C30.0748 53.8047 30.0802 53.7993 30.0856 53.7938C30.6595 53.2006 32.2576 53.3116 33.8032 53.4189C34.9012 53.4953 36.1255 53.5802 37.3216 53.4423L42.81 58.9241C42.4544 59.5724 42.2646 60.3042 42.2646 61.0663C42.2646 62.2596 42.7277 63.3793 43.5687 64.2194L45.9324 66.5801C46.7728 67.4196 47.8931 67.8821 49.0868 67.8821C50.2804 67.8821 51.4007 67.4197 52.2412 66.5801L66.5772 52.2616C67.4181 51.4217 67.8812 50.3013 67.8812 49.1068C67.8811 47.9124 67.418 46.792 66.5762 45.9513ZM31.0808 13.7376L36.8829 14.8358L33.41 18.3074C32.8728 18.0492 32.1365 17.5676 31.3287 16.7949C30.2231 15.7372 29.4322 14.516 29.3602 13.7543C29.36 13.7539 29.36 13.7535 29.36 13.7531C29.36 13.753 29.3599 13.7529 29.3599 13.7527C29.3547 13.698 29.3534 13.6543 29.3541 13.621C29.529 13.5785 29.9936 13.5313 31.0808 13.7376ZM24.2996 14.8281C24.9772 14.1512 26.0299 14.0731 26.7956 14.5916C27.2295 16.4108 28.7814 18.0597 29.4796 18.7278C29.997 19.2229 31.6573 20.7073 33.3331 21.1153C33.5598 21.4403 33.6832 21.8277 33.6832 22.2365C33.6832 22.7631 33.4807 23.2555 33.1116 23.6242C32.7436 23.9928 32.2504 24.1958 31.7229 24.1958C31.1952 24.1958 30.7021 23.9928 30.3324 23.6224L30.3322 23.6223L30.3316 23.6216L24.2995 17.6005C23.9317 17.2332 23.7292 16.7409 23.7292 16.2144C23.7293 15.6878 23.9319 15.1955 24.2996 14.8281ZM20.8045 20.6648C21.1725 20.2963 21.6651 20.0932 22.1919 20.0932C22.7193 20.0932 23.2135 20.2967 23.5839 20.6667L28.4411 25.5142C29.206 26.2803 29.206 27.5269 28.4438 28.2903C28.0738 28.6588 27.5789 28.8618 27.0504 28.8618C26.522 28.8618 26.0271 28.6588 25.6587 28.2919L25.6586 28.2917L21.9737 24.6076C21.968 24.6019 21.9617 24.5966 21.9559 24.5908L20.8031 23.4385C20.4332 23.069 20.2296 22.5757 20.23 22.0495C20.2305 21.5251 20.4334 21.0343 20.8045 20.6648ZM17.3028 26.5003C17.6711 26.1326 18.1647 25.9301 18.6931 25.9301C19.217 25.9301 19.7064 26.1297 20.0731 26.4911L23.7693 30.1855C24.1379 30.5526 24.3409 31.0444 24.3409 31.5703C24.3409 32.0961 24.1379 32.5879 23.7678 32.9565C23.3997 33.3241 22.9065 33.5267 22.3792 33.5267C21.851 33.5267 21.3562 33.3236 20.9875 32.9565L19.6476 31.6181C19.6473 31.6177 19.6469 31.6175 19.6467 31.6172L17.3029 29.2763C16.9334 28.9072 16.73 28.4142 16.73 27.8882C16.73 27.3624 16.9334 26.8693 17.3028 26.5003ZM14.9733 33.511C15.3431 33.1415 15.8375 32.938 16.3651 32.938C16.8927 32.938 17.3869 33.1414 17.7566 33.5106L19.0984 34.8508C19.4671 35.2179 19.67 35.7097 19.67 36.2356C19.67 36.7616 19.467 37.2532 19.0956 37.6233C18.7276 37.9918 18.2345 38.1949 17.7069 38.1949C17.1793 38.1949 16.6861 37.992 16.3155 37.6206L16.1475 37.4533C16.1452 37.451 16.1435 37.4486 16.1413 37.4465C16.1388 37.4441 16.1362 37.442 16.1336 37.4396L14.9746 36.285C14.2097 35.5186 14.2091 34.2743 14.9733 33.511ZM42.2309 48.7124C41.7088 48.1897 40.8619 48.1893 40.3394 48.7112L39.1494 49.8998C38.0186 51.0306 35.9697 50.8882 33.9883 50.7507C31.8366 50.6012 29.6116 50.4468 28.1718 51.925L23.2451 56.8457L10.925 44.5437L15.285 40.1916C16.0056 40.6333 16.8372 40.8701 17.7072 40.8701C18.9502 40.8701 20.1158 40.3883 20.9863 39.5161C21.8628 38.6433 22.3455 37.4784 22.3455 36.2358C22.3455 36.2242 22.3448 36.2128 22.3448 36.2012C22.3563 36.2014 22.3679 36.202 22.3794 36.202C23.6207 36.202 24.7853 35.7217 25.6571 34.8509C26.5335 33.9781 27.0163 32.8131 27.0163 31.5706C27.0163 31.559 27.0155 31.5476 27.0155 31.5361C27.0272 31.5361 27.0389 31.5369 27.0507 31.5369C28.2916 31.5369 29.4569 31.057 30.3345 30.183C31.2456 29.2704 31.6962 28.069 31.6876 26.8701C31.6995 26.8702 31.7115 26.8709 31.7234 26.8709C32.9664 26.8708 34.1319 26.3891 35.0038 25.5155C35.8775 24.6428 36.3589 23.4783 36.3589 22.2365C36.3589 21.3681 36.1227 20.5379 35.6824 19.8187L39.5039 15.9989C39.7886 15.7153 40.1398 15.5373 40.5078 15.4639C40.5476 15.4596 40.5869 15.4533 40.6259 15.4456C41.2163 15.3642 41.8364 15.5464 42.288 15.9961C43.0529 16.7623 43.0529 18.0088 42.2908 18.7723L41.127 19.9313C41.1231 19.9352 41.119 19.9386 41.1151 19.9425L39.7747 21.2807C39.2519 21.8026 39.2514 22.6496 39.7735 23.1722C40.2957 23.6949 41.1425 23.6953 41.665 23.1734L42.8335 22.0065C42.8337 22.0062 42.834 22.006 42.8343 22.0057L43.0109 21.8297C43.7779 21.0698 45.0205 21.0714 45.7867 21.8365C46.1554 22.2036 46.3584 22.6954 46.3584 23.2213C46.3584 23.7471 46.1554 24.2389 45.7838 24.609L44.6133 25.7818C44.6132 25.782 44.613 25.7821 44.6129 25.7824L43.2725 27.1173C42.7491 27.6385 42.7474 28.4855 43.2687 29.0088C43.79 29.5322 44.6368 29.5338 45.1602 29.0126L46.5067 27.6716C46.8747 27.3029 47.3678 27.1 47.8954 27.1C48.423 27.1 48.9163 27.3029 49.287 27.6743C49.6556 28.0415 49.8586 28.5333 49.8586 29.0592C49.8586 29.5851 49.6556 30.0769 49.2848 30.4461L46.9513 32.7805C46.4291 33.303 46.4292 34.1498 46.9516 34.672C47.2128 34.9331 47.555 35.0636 47.8972 35.0636C48.2396 35.0636 48.582 34.9329 48.8431 34.6716L49.9868 33.5276C49.9933 33.5213 50.0003 33.5159 50.0068 33.5094C50.3748 33.1407 50.868 32.9378 51.3955 32.9378C51.9232 32.9378 52.4163 33.1407 52.7856 33.5107C53.5497 34.274 53.549 35.5184 52.7856 36.2832L51.6229 37.4446C51.6225 37.445 51.6219 37.4454 51.6215 37.4458C51.6211 37.4462 51.6207 37.4468 51.6203 37.4472L49.7748 39.2905C49.2522 39.8125 49.2516 40.6595 49.7736 41.1821C50.0348 41.4436 50.3775 41.5744 50.72 41.5744C51.062 41.5744 51.4041 41.444 51.6652 41.1833L52.568 40.2816L56.8946 44.6032L44.5756 56.9072L40.1617 52.4987C40.4694 52.3008 40.7639 52.0681 41.0402 51.7917L42.2296 50.6038C42.7525 50.082 42.753 49.2351 42.2309 48.7124ZM64.6866 50.3689L50.3507 64.6874C50.0153 65.0224 49.5664 65.2068 49.0867 65.2068C48.607 65.2068 48.1581 65.0223 47.8226 64.6873L45.4589 62.3265C45.124 61.9921 44.9395 61.5445 44.9395 61.0663C44.9395 60.5881 45.124 60.1406 45.4589 59.806L59.7948 45.4875C60.1303 45.1524 60.5791 44.9679 61.0589 44.9679C61.5387 44.9679 61.9876 45.1524 62.3238 45.4883L64.6867 47.8445C65.0217 48.1791 65.2061 48.6272 65.2061 49.1066C65.206 49.5862 65.0215 50.0345 64.6866 50.3689Z" fill="#6551BC"/>
<path d="M16.1206 7.51315C16.3817 7.77373 16.7236 7.90389 17.0654 7.90389C17.4081 7.90389 17.7509 7.77293 18.0121 7.51116C18.5339 6.98828 18.5331 6.14146 18.0102 5.61964L13.1363 0.755386C12.6135 0.233566 11.7666 0.23423 11.2448 0.757246C10.723 1.28013 10.7238 2.12694 11.2466 2.64876L16.1206 7.51315Z" fill="#6551BC"/>
<path d="M50.6973 7.90384C51.0393 7.90384 51.3814 7.77341 51.6426 7.5127L56.5128 2.64831C57.0354 2.12636 57.0359 1.27941 56.5139 0.756797C55.9919 0.23418 55.1451 0.233649 54.6223 0.755735L49.7521 5.62013C49.2295 6.14208 49.2289 6.98902 49.751 7.51164C50.0123 7.77315 50.3548 7.90384 50.6973 7.90384Z" fill="#6551BC"/>
<path d="M8.34312 57.5349C7.82529 58.0616 7.83246 58.9086 8.35933 59.4264L8.36318 59.4301C8.62309 59.6856 8.96057 59.8129 9.29791 59.8129C9.64415 59.8129 9.99039 59.6789 10.2527 59.4121C10.7705 58.8853 10.7614 58.0365 10.2346 57.5187C9.70804 57.0008 8.86122 57.0081 8.34312 57.5349Z" fill="#6551BC"/>
<path d="M45.5023 46.7854C45.7057 46.7854 45.9121 46.7391 46.1059 46.6415C46.7654 46.3088 47.0304 45.5045 46.6978 44.8449C46.3651 44.1854 45.5607 43.9203 44.9013 44.253L44.8938 44.2567C44.2343 44.5894 43.9731 45.3918 44.3056 46.0514C44.5404 46.5173 45.0127 46.7854 45.5023 46.7854Z" fill="#6551BC"/>
</svg>
